<svg xmlns="http://www.w3.org/2000/svg" xmlns:xlink="http://www.w3.org/1999/xlink" width="150" zoomAndPan="magnify" viewBox="0 0 112.5 337.499992" height="450" preserveAspectRatio="xMidYMid meet" version="1.0"><defs><g/><clipPath id="7bce0911fd"><path d="M 54.878906 0.496094 L 57.121094 0.496094 L 57.121094 13.9375 L 54.878906 13.9375 Z M 54.878906 16.175781 L 57.121094 16.175781 L 57.121094 29.617188 L 54.878906 29.617188 Z M 54.878906 31.855469 L 57.121094 31.855469 L 57.121094 45.296875 L 54.878906 45.296875 Z M 54.878906 47.539062 L 57.121094 47.539062 L 57.121094 60.976562 L 54.878906 60.976562 Z M 54.878906 63.21875 L 57.121094 63.21875 L 57.121094 76.65625 L 54.878906 76.65625 Z M 54.878906 78.898438 L 57.121094 78.898438 L 57.121094 92.339844 L 54.878906 92.339844 Z M 54.878906 94.578125 L 57.121094 94.578125 L 57.121094 108.019531 L 54.878906 108.019531 Z M 54.878906 110.257812 L 57.121094 110.257812 L 57.121094 123.699219 L 54.878906 123.699219 Z M 54.878906 125.9375 L 57.121094 125.9375 L 57.121094 139.378906 L 54.878906 139.378906 Z M 54.878906 141.621094 L 57.121094 141.621094 L 57.121094 152.679688 L 54.878906 152.679688 Z M 54.878906 184.320312 L 57.121094 184.320312 L 57.121094 186.421875 L 54.878906 186.421875 Z M 54.878906 188.660156 L 57.121094 188.660156 L 57.121094 202.101562 L 54.878906 202.101562 Z M 54.878906 204.339844 L 57.121094 204.339844 L 57.121094 217.78125 L 54.878906 217.78125 Z M 54.878906 220.019531 L 57.121094 220.019531 L 57.121094 233.460938 L 54.878906 233.460938 Z M 54.878906 235.703125 L 57.121094 235.703125 L 57.121094 249.140625 L 54.878906 249.140625 Z M 54.878906 251.382812 L 57.121094 251.382812 L 57.121094 264.820312 L 54.878906 264.820312 Z M 54.878906 267.0625 L 57.121094 267.0625 L 57.121094 280.503906 L 54.878906 280.503906 Z M 54.878906 282.742188 L 57.121094 282.742188 L 57.121094 296.183594 L 54.878906 296.183594 Z M 54.878906 298.421875 L 57.121094 298.421875 L 57.121094 311.863281 L 54.878906 311.863281 Z M 54.878906 314.101562 L 57.121094 314.101562 L 57.121094 327.542969 L 54.878906 327.542969 Z M 54.878906 329.78125 L 57.121094 329.78125 L 57.121094 330.34375 L 54.878906 330.34375 Z M 54.878906 329.78125 " clip-rule="nonzero"/></clipPath><linearGradient x1="0.00154667" gradientTransform="matrix(0, 0.746681, -0.746681, 0, 66.752152, 0.496628)" y1="14.4" x2="441.749972" gradientUnits="userSpaceOnUse" y2="14.4" id="6847384c1a"><stop stop-opacity="1" stop-color="rgb(31.799316%, 43.899536%, 99.998474%)" offset="0"/><stop stop-opacity="1" stop-color="rgb(32.060242%, 43.884277%, 99.909973%)" offset="0.00390625"/><stop stop-opacity="1" stop-color="rgb(32.322693%, 43.869019%, 99.821472%)" offset="0.0078125"/><stop stop-opacity="1" stop-color="rgb(32.583618%, 43.85376%, 99.732971%)" offset="0.0117188"/><stop stop-opacity="1" stop-color="rgb(32.846069%, 43.840027%, 99.64447%)" offset="0.015625"/><stop stop-opacity="1" stop-color="rgb(33.106995%, 43.824768%, 99.555969%)" offset="0.0195312"/><stop stop-opacity="1" stop-color="rgb(33.36792%, 43.809509%, 99.467468%)" offset="0.0234375"/><stop stop-opacity="1" stop-color="rgb(33.628845%, 43.79425%, 99.378967%)" offset="0.0273438"/><stop stop-opacity="1" stop-color="rgb(33.891296%, 43.778992%, 99.290466%)" offset="0.03125"/><stop stop-opacity="1" stop-color="rgb(34.152222%, 43.763733%, 99.201965%)" offset="0.0351562"/><stop stop-opacity="1" stop-color="rgb(34.414673%, 43.75%, 99.113464%)" offset="0.0390625"/><stop stop-opacity="1" stop-color="rgb(34.675598%, 43.734741%, 99.024963%)" offset="0.0429688"/><stop stop-opacity="1" stop-color="rgb(34.938049%, 43.719482%, 98.936462%)" offset="0.046875"/><stop stop-opacity="1" stop-color="rgb(35.198975%, 43.704224%, 98.847961%)" offset="0.0507812"/><stop stop-opacity="1" stop-color="rgb(35.461426%, 43.690491%, 98.75946%)" offset="0.0546875"/><stop stop-opacity="1" stop-color="rgb(35.722351%, 43.675232%, 98.670959%)" offset="0.0585938"/><stop stop-opacity="1" stop-color="rgb(35.983276%, 43.659973%, 98.582458%)" offset="0.0625"/><stop stop-opacity="1" stop-color="rgb(36.244202%, 43.644714%, 98.493958%)" offset="0.0664062"/><stop stop-opacity="1" stop-color="rgb(36.506653%, 43.629456%, 98.405457%)" offset="0.0703125"/><stop stop-opacity="1" stop-color="rgb(36.767578%, 43.614197%, 98.31543%)" offset="0.0742188"/><stop stop-opacity="1" stop-color="rgb(37.030029%, 43.600464%, 98.226929%)" offset="0.078125"/><stop stop-opacity="1" stop-color="rgb(37.290955%, 43.585205%, 98.138428%)" offset="0.0820313"/><stop stop-opacity="1" stop-color="rgb(37.553406%, 43.569946%, 98.049927%)" offset="0.0859375"/><stop stop-opacity="1" stop-color="rgb(37.814331%, 43.554688%, 97.961426%)" offset="0.0898438"/><stop stop-opacity="1" stop-color="rgb(38.075256%, 43.540955%, 97.872925%)" offset="0.09375"/><stop stop-opacity="1" stop-color="rgb(38.336182%, 43.525696%, 97.784424%)" offset="0.0976562"/><stop stop-opacity="1" stop-color="rgb(38.598633%, 43.510437%, 97.695923%)" offset="0.101562"/><stop stop-opacity="1" stop-color="rgb(38.859558%, 43.495178%, 97.607422%)" offset="0.105469"/><stop stop-opacity="1" stop-color="rgb(39.122009%, 43.479919%, 97.518921%)" offset="0.109375"/><stop stop-opacity="1" stop-color="rgb(39.382935%, 43.464661%, 97.43042%)" offset="0.113281"/><stop stop-opacity="1" stop-color="rgb(39.645386%, 43.450928%, 97.341919%)" offset="0.117188"/><stop stop-opacity="1" stop-color="rgb(39.906311%, 43.435669%, 97.253418%)" offset="0.121094"/><stop stop-opacity="1" stop-color="rgb(40.168762%, 43.42041%, 97.164917%)" offset="0.125"/><stop stop-opacity="1" stop-color="rgb(40.429688%, 43.405151%, 97.076416%)" offset="0.128906"/><stop stop-opacity="1" stop-color="rgb(40.690613%, 43.391418%, 96.987915%)" offset="0.132812"/><stop stop-opacity="1" stop-color="rgb(40.951538%, 43.37616%, 96.899414%)" offset="0.136719"/><stop stop-opacity="1" stop-color="rgb(41.213989%, 43.360901%, 96.810913%)" offset="0.140625"/><stop stop-opacity="1" stop-color="rgb(41.474915%, 43.345642%, 96.720886%)" offset="0.144531"/><stop stop-opacity="1" stop-color="rgb(41.737366%, 43.330383%, 96.632385%)" offset="0.148438"/><stop stop-opacity="1" stop-color="rgb(41.998291%, 43.315125%, 96.543884%)" offset="0.152344"/><stop stop-opacity="1" stop-color="rgb(42.260742%, 43.301392%, 96.455383%)" offset="0.15625"/><stop stop-opacity="1" stop-color="rgb(42.521667%, 43.286133%, 96.366882%)" offset="0.160156"/><stop stop-opacity="1" stop-color="rgb(42.784119%, 43.270874%, 96.278381%)" offset="0.164062"/><stop stop-opacity="1" stop-color="rgb(43.045044%, 43.255615%, 96.18988%)" offset="0.167969"/><stop stop-opacity="1" stop-color="rgb(43.305969%, 43.241882%, 96.101379%)" offset="0.171875"/><stop stop-opacity="1" stop-color="rgb(43.566895%, 43.226624%, 96.012878%)" offset="0.175781"/><stop stop-opacity="1" stop-color="rgb(43.829346%, 43.211365%, 95.924377%)" offset="0.179688"/><stop stop-opacity="1" stop-color="rgb(44.090271%, 43.196106%, 95.835876%)" offset="0.183594"/><stop stop-opacity="1" stop-color="rgb(44.352722%, 43.180847%, 95.747375%)" offset="0.1875"/><stop stop-opacity="1" stop-color="rgb(44.613647%, 43.165588%, 95.658875%)" offset="0.191406"/><stop stop-opacity="1" stop-color="rgb(44.876099%, 43.151855%, 95.570374%)" offset="0.195312"/><stop stop-opacity="1" stop-color="rgb(45.137024%, 43.136597%, 95.481873%)" offset="0.199219"/><stop stop-opacity="1" stop-color="rgb(45.397949%, 43.121338%, 95.393372%)" offset="0.203125"/><stop stop-opacity="1" stop-color="rgb(45.658875%, 43.106079%, 95.304871%)" offset="0.207031"/><stop stop-opacity="1" stop-color="rgb(45.921326%, 43.092346%, 95.21637%)" offset="0.210938"/><stop stop-opacity="1" stop-color="rgb(46.182251%, 43.077087%, 95.127869%)" offset="0.214844"/><stop stop-opacity="1" stop-color="rgb(46.444702%, 43.061829%, 95.039368%)" offset="0.21875"/><stop stop-opacity="1" stop-color="rgb(46.705627%, 43.04657%, 94.949341%)" offset="0.222656"/><stop stop-opacity="1" stop-color="rgb(46.968079%, 43.031311%, 94.86084%)" offset="0.226562"/><stop stop-opacity="1" stop-color="rgb(47.229004%, 43.016052%, 94.772339%)" offset="0.230469"/><stop stop-opacity="1" stop-color="rgb(47.491455%, 43.002319%, 94.683838%)" offset="0.234375"/><stop stop-opacity="1" stop-color="rgb(47.75238%, 42.987061%, 94.595337%)" offset="0.238281"/><stop stop-opacity="1" stop-color="rgb(48.013306%, 42.971802%, 94.506836%)" offset="0.242188"/><stop stop-opacity="1" stop-color="rgb(48.274231%, 42.956543%, 94.418335%)" offset="0.246094"/><stop stop-opacity="1" stop-color="rgb(48.536682%, 42.94281%, 94.329834%)" offset="0.25"/><stop stop-opacity="1" stop-color="rgb(48.797607%, 42.927551%, 94.241333%)" offset="0.253906"/><stop stop-opacity="1" stop-color="rgb(49.060059%, 42.912292%, 94.152832%)" offset="0.257813"/><stop stop-opacity="1" stop-color="rgb(49.320984%, 42.897034%, 94.064331%)" offset="0.261719"/><stop stop-opacity="1" stop-color="rgb(49.583435%, 42.881775%, 93.97583%)" offset="0.265625"/><stop stop-opacity="1" stop-color="rgb(49.84436%, 42.866516%, 93.887329%)" offset="0.269531"/><stop stop-opacity="1" stop-color="rgb(50.105286%, 42.852783%, 93.798828%)" offset="0.273438"/><stop stop-opacity="1" stop-color="rgb(50.366211%, 42.837524%, 93.710327%)" offset="0.277344"/><stop stop-opacity="1" stop-color="rgb(50.628662%, 42.822266%, 93.621826%)" offset="0.28125"/><stop stop-opacity="1" stop-color="rgb(50.889587%, 42.807007%, 93.533325%)" offset="0.285156"/><stop stop-opacity="1" stop-color="rgb(51.152039%, 42.793274%, 93.444824%)" offset="0.289063"/><stop stop-opacity="1" stop-color="rgb(51.412964%, 42.778015%, 93.356323%)" offset="0.292969"/><stop stop-opacity="1" stop-color="rgb(51.675415%, 42.762756%, 93.267822%)" offset="0.296875"/><stop stop-opacity="1" stop-color="rgb(51.93634%, 42.747498%, 93.177795%)" offset="0.300781"/><stop stop-opacity="1" stop-color="rgb(52.198792%, 42.732239%, 93.089294%)" offset="0.304688"/><stop stop-opacity="1" stop-color="rgb(52.459717%, 42.71698%, 93.000793%)" offset="0.308594"/><stop stop-opacity="1" stop-color="rgb(52.720642%, 42.703247%, 92.912292%)" offset="0.3125"/><stop stop-opacity="1" stop-color="rgb(52.981567%, 42.687988%, 92.823792%)" offset="0.316406"/><stop stop-opacity="1" stop-color="rgb(53.244019%, 42.672729%, 92.735291%)" offset="0.320312"/><stop stop-opacity="1" stop-color="rgb(53.504944%, 42.657471%, 92.64679%)" offset="0.324219"/><stop stop-opacity="1" stop-color="rgb(53.767395%, 42.643738%, 92.558289%)" offset="0.328125"/><stop stop-opacity="1" stop-color="rgb(54.02832%, 42.628479%, 92.469788%)" offset="0.332031"/><stop stop-opacity="1" stop-color="rgb(54.290771%, 42.61322%, 92.381287%)" offset="0.335938"/><stop stop-opacity="1" stop-color="rgb(54.551697%, 42.597961%, 92.292786%)" offset="0.339844"/><stop stop-opacity="1" stop-color="rgb(54.812622%, 42.582703%, 92.204285%)" offset="0.34375"/><stop stop-opacity="1" stop-color="rgb(55.073547%, 42.567444%, 92.115784%)" offset="0.347656"/><stop stop-opacity="1" stop-color="rgb(55.335999%, 42.553711%, 92.027283%)" offset="0.351562"/><stop stop-opacity="1" stop-color="rgb(55.596924%, 42.538452%, 91.938782%)" offset="0.355469"/><stop stop-opacity="1" stop-color="rgb(55.859375%, 42.523193%, 91.850281%)" offset="0.359375"/><stop stop-opacity="1" stop-color="rgb(56.1203%, 42.507935%, 91.76178%)" offset="0.363281"/><stop stop-opacity="1" stop-color="rgb(56.382751%, 42.494202%, 91.673279%)" offset="0.367188"/><stop stop-opacity="1" stop-color="rgb(56.643677%, 42.478943%, 91.583252%)" offset="0.371094"/><stop stop-opacity="1" stop-color="rgb(56.906128%, 42.463684%, 91.494751%)" offset="0.375"/><stop stop-opacity="1" stop-color="rgb(57.167053%, 42.448425%, 91.40625%)" offset="0.378906"/><stop stop-opacity="1" stop-color="rgb(57.427979%, 42.433167%, 91.317749%)" offset="0.382812"/><stop stop-opacity="1" stop-color="rgb(57.688904%, 42.417908%, 91.229248%)" offset="0.386719"/><stop stop-opacity="1" stop-color="rgb(57.951355%, 42.404175%, 91.140747%)" offset="0.390625"/><stop stop-opacity="1" stop-color="rgb(58.21228%, 42.388916%, 91.052246%)" offset="0.394531"/><stop stop-opacity="1" stop-color="rgb(58.474731%, 42.373657%, 90.963745%)" offset="0.398438"/><stop stop-opacity="1" stop-color="rgb(58.735657%, 42.358398%, 90.875244%)" offset="0.402344"/><stop stop-opacity="1" stop-color="rgb(58.998108%, 42.34314%, 90.786743%)" offset="0.40625"/><stop stop-opacity="1" stop-color="rgb(59.259033%, 42.327881%, 90.698242%)" offset="0.410156"/><stop stop-opacity="1" stop-color="rgb(59.519958%, 42.314148%, 90.609741%)" offset="0.414063"/><stop stop-opacity="1" stop-color="rgb(59.780884%, 42.298889%, 90.52124%)" offset="0.417969"/><stop stop-opacity="1" stop-color="rgb(60.043335%, 42.28363%, 90.432739%)" offset="0.421875"/><stop stop-opacity="1" stop-color="rgb(60.30426%, 42.268372%, 90.344238%)" offset="0.425781"/><stop stop-opacity="1" stop-color="rgb(60.566711%, 42.254639%, 90.255737%)" offset="0.429688"/><stop stop-opacity="1" stop-color="rgb(60.827637%, 42.23938%, 90.167236%)" offset="0.433594"/><stop stop-opacity="1" stop-color="rgb(61.090088%, 42.224121%, 90.078735%)" offset="0.4375"/><stop stop-opacity="1" stop-color="rgb(61.351013%, 42.208862%, 89.990234%)" offset="0.441406"/><stop stop-opacity="1" stop-color="rgb(61.613464%, 42.193604%, 89.901733%)" offset="0.445313"/><stop stop-opacity="1" stop-color="rgb(61.87439%, 42.178345%, 89.811707%)" offset="0.449219"/><stop stop-opacity="1" stop-color="rgb(62.135315%, 42.164612%, 89.723206%)" offset="0.453125"/><stop stop-opacity="1" stop-color="rgb(62.39624%, 42.149353%, 89.634705%)" offset="0.457031"/><stop stop-opacity="1" stop-color="rgb(62.658691%, 42.134094%, 89.546204%)" offset="0.460938"/><stop stop-opacity="1" stop-color="rgb(62.919617%, 42.118835%, 89.457703%)" offset="0.464844"/><stop stop-opacity="1" stop-color="rgb(63.182068%, 42.105103%, 89.369202%)" offset="0.46875"/><stop stop-opacity="1" stop-color="rgb(63.442993%, 42.089844%, 89.280701%)" offset="0.472656"/><stop stop-opacity="1" stop-color="rgb(63.705444%, 42.074585%, 89.1922%)" offset="0.476563"/><stop stop-opacity="1" stop-color="rgb(63.96637%, 42.059326%, 89.103699%)" offset="0.480469"/><stop stop-opacity="1" stop-color="rgb(64.228821%, 42.044067%, 89.015198%)" offset="0.484375"/><stop stop-opacity="1" stop-color="rgb(64.489746%, 42.028809%, 88.926697%)" offset="0.488281"/><stop stop-opacity="1" stop-color="rgb(64.750671%, 42.015076%, 88.838196%)" offset="0.492188"/><stop stop-opacity="1" stop-color="rgb(65.011597%, 41.999817%, 88.749695%)" offset="0.496094"/><stop stop-opacity="1" stop-color="rgb(65.274048%, 41.984558%, 88.661194%)" offset="0.5"/><stop stop-opacity="1" stop-color="rgb(65.534973%, 41.969299%, 88.572693%)" offset="0.503906"/><stop stop-opacity="1" stop-color="rgb(65.797424%, 41.955566%, 88.484192%)" offset="0.507813"/><stop stop-opacity="1" stop-color="rgb(66.05835%, 41.940308%, 88.395691%)" offset="0.511719"/><stop stop-opacity="1" stop-color="rgb(66.320801%, 41.925049%, 88.30719%)" offset="0.515625"/><stop stop-opacity="1" stop-color="rgb(66.581726%, 41.90979%, 88.218689%)" offset="0.519531"/><stop stop-opacity="1" stop-color="rgb(66.842651%, 41.894531%, 88.130188%)" offset="0.523438"/><stop stop-opacity="1" stop-color="rgb(67.103577%, 41.879272%, 88.040161%)" offset="0.527344"/><stop stop-opacity="1" stop-color="rgb(67.366028%, 41.86554%, 87.95166%)" offset="0.53125"/><stop stop-opacity="1" stop-color="rgb(67.626953%, 41.850281%, 87.863159%)" offset="0.535156"/><stop stop-opacity="1" stop-color="rgb(67.889404%, 41.835022%, 87.774658%)" offset="0.539062"/><stop stop-opacity="1" stop-color="rgb(68.15033%, 41.819763%, 87.686157%)" offset="0.542969"/><stop stop-opacity="1" stop-color="rgb(68.412781%, 41.80603%, 87.597656%)" offset="0.546875"/><stop stop-opacity="1" stop-color="rgb(68.673706%, 41.790771%, 87.509155%)" offset="0.550781"/><stop stop-opacity="1" stop-color="rgb(68.936157%, 41.775513%, 87.420654%)" offset="0.554688"/><stop stop-opacity="1" stop-color="rgb(69.197083%, 41.760254%, 87.332153%)" offset="0.558594"/><stop stop-opacity="1" stop-color="rgb(69.458008%, 41.744995%, 87.243652%)" offset="0.5625"/><stop stop-opacity="1" stop-color="rgb(69.718933%, 41.729736%, 87.155151%)" offset="0.566406"/><stop stop-opacity="1" stop-color="rgb(69.981384%, 41.716003%, 87.06665%)" offset="0.570312"/><stop stop-opacity="1" stop-color="rgb(70.24231%, 41.700745%, 86.978149%)" offset="0.574219"/><stop stop-opacity="1" stop-color="rgb(70.504761%, 41.685486%, 86.889648%)" offset="0.578125"/><stop stop-opacity="1" stop-color="rgb(70.765686%, 41.670227%, 86.801147%)" offset="0.582031"/><stop stop-opacity="1" stop-color="rgb(71.028137%, 41.656494%, 86.712646%)" offset="0.585938"/><stop stop-opacity="1" stop-color="rgb(71.289062%, 41.641235%, 86.624146%)" offset="0.589844"/><stop stop-opacity="1" stop-color="rgb(71.549988%, 41.625977%, 86.535645%)" offset="0.59375"/><stop stop-opacity="1" stop-color="rgb(71.810913%, 41.610718%, 86.445618%)" offset="0.597656"/><stop stop-opacity="1" stop-color="rgb(72.073364%, 41.595459%, 86.357117%)" offset="0.601562"/><stop stop-opacity="1" stop-color="rgb(72.33429%, 41.5802%, 86.268616%)" offset="0.605469"/><stop stop-opacity="1" stop-color="rgb(72.596741%, 41.566467%, 86.180115%)" offset="0.609375"/><stop stop-opacity="1" stop-color="rgb(72.857666%, 41.551208%, 86.091614%)" offset="0.613281"/><stop stop-opacity="1" stop-color="rgb(73.120117%, 41.53595%, 86.003113%)" offset="0.617188"/><stop stop-opacity="1" stop-color="rgb(73.381042%, 41.520691%, 85.914612%)" offset="0.621094"/><stop stop-opacity="1" stop-color="rgb(73.643494%, 41.506958%, 85.826111%)" offset="0.625"/><stop stop-opacity="1" stop-color="rgb(73.904419%, 41.491699%, 85.73761%)" offset="0.628906"/><stop stop-opacity="1" stop-color="rgb(74.165344%, 41.47644%, 85.649109%)" offset="0.632812"/><stop stop-opacity="1" stop-color="rgb(74.42627%, 41.461182%, 85.560608%)" offset="0.636719"/><stop stop-opacity="1" stop-color="rgb(74.688721%, 41.445923%, 85.472107%)" offset="0.640625"/><stop stop-opacity="1" stop-color="rgb(74.949646%, 41.430664%, 85.383606%)" offset="0.644531"/><stop stop-opacity="1" stop-color="rgb(75.212097%, 41.416931%, 85.295105%)" offset="0.648438"/><stop stop-opacity="1" stop-color="rgb(75.473022%, 41.401672%, 85.206604%)" offset="0.652344"/><stop stop-opacity="1" stop-color="rgb(75.735474%, 41.386414%, 85.118103%)" offset="0.65625"/><stop stop-opacity="1" stop-color="rgb(75.996399%, 41.371155%, 85.029602%)" offset="0.660156"/><stop stop-opacity="1" stop-color="rgb(76.257324%, 41.357422%, 84.941101%)" offset="0.664062"/><stop stop-opacity="1" stop-color="rgb(76.51825%, 41.342163%, 84.8526%)" offset="0.667969"/><stop stop-opacity="1" stop-color="rgb(76.780701%, 41.326904%, 84.764099%)" offset="0.671875"/><stop stop-opacity="1" stop-color="rgb(77.041626%, 41.311646%, 84.674072%)" offset="0.675781"/><stop stop-opacity="1" stop-color="rgb(77.304077%, 41.296387%, 84.585571%)" offset="0.679688"/><stop stop-opacity="1" stop-color="rgb(77.565002%, 41.281128%, 84.49707%)" offset="0.683594"/><stop stop-opacity="1" stop-color="rgb(77.827454%, 41.267395%, 84.408569%)" offset="0.6875"/><stop stop-opacity="1" stop-color="rgb(78.088379%, 41.252136%, 84.320068%)" offset="0.691406"/><stop stop-opacity="1" stop-color="rgb(78.35083%, 41.236877%, 84.231567%)" offset="0.695312"/><stop stop-opacity="1" stop-color="rgb(78.611755%, 41.221619%, 84.143066%)" offset="0.699219"/><stop stop-opacity="1" stop-color="rgb(78.872681%, 41.207886%, 84.054565%)" offset="0.703125"/><stop stop-opacity="1" stop-color="rgb(79.133606%, 41.192627%, 83.966064%)" offset="0.707031"/><stop stop-opacity="1" stop-color="rgb(79.396057%, 41.177368%, 83.877563%)" offset="0.710938"/><stop stop-opacity="1" stop-color="rgb(79.656982%, 41.162109%, 83.789062%)" offset="0.714844"/><stop stop-opacity="1" stop-color="rgb(79.919434%, 41.146851%, 83.700562%)" offset="0.71875"/><stop stop-opacity="1" stop-color="rgb(80.180359%, 41.131592%, 83.612061%)" offset="0.722656"/><stop stop-opacity="1" stop-color="rgb(80.44281%, 41.117859%, 83.52356%)" offset="0.726563"/><stop stop-opacity="1" stop-color="rgb(80.703735%, 41.1026%, 83.435059%)" offset="0.730469"/><stop stop-opacity="1" stop-color="rgb(80.966187%, 41.087341%, 83.346558%)" offset="0.734375"/><stop stop-opacity="1" stop-color="rgb(81.227112%, 41.072083%, 83.258057%)" offset="0.738281"/><stop stop-opacity="1" stop-color="rgb(81.488037%, 41.05835%, 83.169556%)" offset="0.742188"/><stop stop-opacity="1" stop-color="rgb(81.748962%, 41.043091%, 83.081055%)" offset="0.746094"/><stop stop-opacity="1" stop-color="rgb(82.011414%, 41.027832%, 82.992554%)" offset="0.75"/><stop stop-opacity="1" stop-color="rgb(82.272339%, 41.012573%, 82.902527%)" offset="0.753906"/><stop stop-opacity="1" stop-color="rgb(82.53479%, 40.997314%, 82.814026%)" offset="0.757813"/><stop stop-opacity="1" stop-color="rgb(82.795715%, 40.982056%, 82.725525%)" offset="0.761719"/><stop stop-opacity="1" stop-color="rgb(83.058167%, 40.968323%, 82.637024%)" offset="0.765625"/><stop stop-opacity="1" stop-color="rgb(83.319092%, 40.953064%, 82.548523%)" offset="0.769531"/><stop stop-opacity="1" stop-color="rgb(83.580017%, 40.937805%, 82.460022%)" offset="0.773438"/><stop stop-opacity="1" stop-color="rgb(83.840942%, 40.922546%, 82.371521%)" offset="0.777344"/><stop stop-opacity="1" stop-color="rgb(84.103394%, 40.908813%, 82.28302%)" offset="0.78125"/><stop stop-opacity="1" stop-color="rgb(84.364319%, 40.893555%, 82.194519%)" offset="0.785156"/><stop stop-opacity="1" stop-color="rgb(84.62677%, 40.878296%, 82.106018%)" offset="0.789062"/><stop stop-opacity="1" stop-color="rgb(84.887695%, 40.863037%, 82.017517%)" offset="0.792969"/><stop stop-opacity="1" stop-color="rgb(85.150146%, 40.847778%, 81.929016%)" offset="0.796875"/><stop stop-opacity="1" stop-color="rgb(85.411072%, 40.83252%, 81.840515%)" offset="0.800781"/><stop stop-opacity="1" stop-color="rgb(85.673523%, 40.818787%, 81.752014%)" offset="0.804688"/><stop stop-opacity="1" stop-color="rgb(85.934448%, 40.803528%, 81.663513%)" offset="0.808594"/><stop stop-opacity="1" stop-color="rgb(86.195374%, 40.788269%, 81.575012%)" offset="0.8125"/><stop stop-opacity="1" stop-color="rgb(86.456299%, 40.77301%, 81.486511%)" offset="0.816406"/><stop stop-opacity="1" stop-color="rgb(86.71875%, 40.759277%, 81.39801%)" offset="0.820312"/><stop stop-opacity="1" stop-color="rgb(86.979675%, 40.744019%, 81.309509%)" offset="0.824219"/><stop stop-opacity="1" stop-color="rgb(87.242126%, 40.72876%, 81.221008%)" offset="0.828125"/><stop stop-opacity="1" stop-color="rgb(87.503052%, 40.713501%, 81.130981%)" offset="0.832031"/><stop stop-opacity="1" stop-color="rgb(87.765503%, 40.698242%, 81.04248%)" offset="0.835938"/><stop stop-opacity="1" stop-color="rgb(88.026428%, 40.682983%, 80.953979%)" offset="0.839844"/><stop stop-opacity="1" stop-color="rgb(88.287354%, 40.66925%, 80.865479%)" offset="0.84375"/><stop stop-opacity="1" stop-color="rgb(88.548279%, 40.653992%, 80.776978%)" offset="0.847656"/><stop stop-opacity="1" stop-color="rgb(88.81073%, 40.638733%, 80.688477%)" offset="0.851562"/><stop stop-opacity="1" stop-color="rgb(89.071655%, 40.623474%, 80.599976%)" offset="0.855469"/><stop stop-opacity="1" stop-color="rgb(89.334106%, 40.609741%, 80.511475%)" offset="0.859375"/><stop stop-opacity="1" stop-color="rgb(89.595032%, 40.594482%, 80.422974%)" offset="0.863281"/><stop stop-opacity="1" stop-color="rgb(89.857483%, 40.579224%, 80.334473%)" offset="0.867188"/><stop stop-opacity="1" stop-color="rgb(90.118408%, 40.563965%, 80.245972%)" offset="0.871094"/><stop stop-opacity="1" stop-color="rgb(90.380859%, 40.548706%, 80.157471%)" offset="0.875"/><stop stop-opacity="1" stop-color="rgb(90.641785%, 40.533447%, 80.06897%)" offset="0.878906"/><stop stop-opacity="1" stop-color="rgb(90.90271%, 40.519714%, 79.980469%)" offset="0.882812"/><stop stop-opacity="1" stop-color="rgb(91.163635%, 40.504456%, 79.891968%)" offset="0.886719"/><stop stop-opacity="1" stop-color="rgb(91.426086%, 40.489197%, 79.803467%)" offset="0.890625"/><stop stop-opacity="1" stop-color="rgb(91.687012%, 40.473938%, 79.714966%)" offset="0.894531"/><stop stop-opacity="1" stop-color="rgb(91.949463%, 40.460205%, 79.626465%)" offset="0.898438"/><stop stop-opacity="1" stop-color="rgb(92.210388%, 40.444946%, 79.536438%)" offset="0.902344"/><stop stop-opacity="1" stop-color="rgb(92.472839%, 40.429688%, 79.447937%)" offset="0.90625"/><stop stop-opacity="1" stop-color="rgb(92.733765%, 40.414429%, 79.359436%)" offset="0.910156"/><stop stop-opacity="1" stop-color="rgb(92.99469%, 40.39917%, 79.270935%)" offset="0.914062"/><stop stop-opacity="1" stop-color="rgb(93.255615%, 40.383911%, 79.182434%)" offset="0.917969"/><stop stop-opacity="1" stop-color="rgb(93.518066%, 40.370178%, 79.093933%)" offset="0.921875"/><stop stop-opacity="1" stop-color="rgb(93.778992%, 40.354919%, 79.005432%)" offset="0.925781"/><stop stop-opacity="1" stop-color="rgb(94.041443%, 40.339661%, 78.916931%)" offset="0.929688"/><stop stop-opacity="1" stop-color="rgb(94.302368%, 40.324402%, 78.82843%)" offset="0.933594"/><stop stop-opacity="1" stop-color="rgb(94.564819%, 40.310669%, 78.739929%)" offset="0.9375"/><stop stop-opacity="1" stop-color="rgb(94.825745%, 40.29541%, 78.651428%)" offset="0.941406"/><stop stop-opacity="1" stop-color="rgb(95.088196%, 40.280151%, 78.562927%)" offset="0.945312"/><stop stop-opacity="1" stop-color="rgb(95.349121%, 40.264893%, 78.474426%)" offset="0.949219"/><stop stop-opacity="1" stop-color="rgb(95.610046%, 40.249634%, 78.385925%)" offset="0.953125"/><stop stop-opacity="1" stop-color="rgb(95.870972%, 40.234375%, 78.297424%)" offset="0.957031"/><stop stop-opacity="1" stop-color="rgb(96.133423%, 40.220642%, 78.208923%)" offset="0.960938"/><stop stop-opacity="1" stop-color="rgb(96.394348%, 40.205383%, 78.120422%)" offset="0.964844"/><stop stop-opacity="1" stop-color="rgb(96.656799%, 40.190125%, 78.031921%)" offset="0.96875"/><stop stop-opacity="1" stop-color="rgb(96.917725%, 40.174866%, 77.94342%)" offset="0.972656"/><stop stop-opacity="1" stop-color="rgb(97.180176%, 40.161133%, 77.854919%)" offset="0.976562"/><stop stop-opacity="1" stop-color="rgb(97.441101%, 40.145874%, 77.764893%)" offset="0.980469"/><stop stop-opacity="1" stop-color="rgb(97.703552%, 40.130615%, 77.676392%)" offset="0.984375"/><stop stop-opacity="1" stop-color="rgb(97.964478%, 40.115356%, 77.587891%)" offset="0.988281"/><stop stop-opacity="1" stop-color="rgb(98.225403%, 40.100098%, 77.49939%)" offset="0.992187"/><stop stop-opacity="1" stop-color="rgb(98.486328%, 40.084839%, 77.410889%)" offset="0.996094"/><stop stop-opacity="1" stop-color="rgb(98.748779%, 40.071106%, 77.322388%)" offset="1"/></linearGradient><clipPath id="bf9ec01edd"><path d="M 52 330 L 60 330 L 60 336 L 52 336 Z M 52 330 " clip-rule="nonzero"/></clipPath><clipPath id="b1d6a0500e"><path d="M 59.359375 330.902344 L 56 335.382812 L 52.640625 330.902344 Z M 59.359375 330.902344 " clip-rule="nonzero"/></clipPath><linearGradient x1="442.499972" gradientTransform="matrix(0, 0.746681, -0.746681, 0, 66.752152, 0.496628)" y1="14.4" x2="448.499972" gradientUnits="userSpaceOnUse" y2="14.4" id="2695c3cf38"><stop stop-opacity="1" stop-color="rgb(98.86322%, 40.063477%, 77.284241%)" offset="0"/><stop stop-opacity="1" stop-color="rgb(98.976135%, 40.057373%, 77.246094%)" offset="0.25"/><stop stop-opacity="1" stop-color="rgb(99.203491%, 40.04364%, 77.168274%)" offset="0.5"/><stop stop-opacity="1" stop-color="rgb(99.430847%, 40.031433%, 77.09198%)" offset="0.75"/><stop stop-opacity="1" stop-color="rgb(99.658203%, 40.0177%, 77.01416%)" offset="1"/></linearGradient><clipPath id="b336ba04c3"><path d="M 54.878906 329 L 57.121094 329 L 57.121094 329.78125 L 54.878906 329.78125 Z M 51.519531 329.78125 L 60.480469 329.78125 L 60.480469 336.503906 L 51.519531 336.503906 Z M 51.519531 329.78125 " clip-rule="nonzero"/></clipPath><linearGradient x1="442.499972" gradientTransform="matrix(1, 0, 0, 1, 0.00000972975, -0.00000265827)" y1="14.4" x2="448.499972" gradientUnits="userSpaceOnUse" y2="14.4" id="9fbe371d9d"><stop stop-opacity="1" stop-color="rgb(98.86322%, 40.063477%, 77.284241%)" offset="0"/><stop stop-opacity="1" stop-color="rgb(98.976135%, 40.057373%, 77.246094%)" offset="0.25"/><stop stop-opacity="1" stop-color="rgb(99.203491%, 40.04364%, 77.168274%)" offset="0.5"/><stop stop-opacity="1" stop-color="rgb(99.430847%, 40.031433%, 77.09198%)" offset="0.75"/><stop stop-opacity="1" stop-color="rgb(99.658203%, 40.0177%, 77.01416%)" offset="1"/></linearGradient></defs><g clip-path="url(#7bce0911fd)"><path fill="url(#6847384c1a)" d="M 57.121094 0.496094 L 54.878906 0.496094 L 54.878906 330.34375 L 57.121094 330.34375 Z M 57.121094 0.496094 " fill-rule="nonzero"/></g><g clip-path="url(#bf9ec01edd)"><g clip-path="url(#b1d6a0500e)"><path fill="url(#2695c3cf38)" d="M 59.359375 330.902344 L 52.640625 330.902344 L 52.640625 335.382812 L 59.359375 335.382812 Z M 59.359375 330.902344 " fill-rule="nonzero"/></g></g><g clip-path="url(#b336ba04c3)"><path stroke-linecap="round" transform="matrix(0, 0.746681, -0.746681, 0, 66.75215, 0.496621)" fill="none" stroke-linejoin="round" d="M 442.498942 9.900842 L 448.499451 14.399917 L 442.498942 18.898991 Z M 442.498942 9.900842 " stroke="url(#9fbe371d9d)" stroke-width="3" stroke-miterlimit="4"/></g><g fill="#ffffff" fill-opacity="1"><g transform="translate(3.430068, 176.341249)"><g><path d="M 11.6875 -5.875 C 11.625 -5.394531 11.523438 -4.90625 11.390625 -4.40625 C 11.265625 -3.914062 11.097656 -3.441406 10.890625 -2.984375 C 10.679688 -2.523438 10.429688 -2.097656 10.140625 -1.703125 C 9.859375 -1.304688 9.53125 -0.960938 9.15625 -0.671875 C 8.78125 -0.378906 8.359375 -0.15625 7.890625 0 C 7.429688 0.164062 6.921875 0.242188 6.359375 0.234375 C 5.816406 0.210938 5.3125 0.0976562 4.84375 -0.109375 C 4.382812 -0.316406 3.976562 -0.628906 3.625 -1.046875 L 2.5625 4.546875 L -0.390625 4.546875 L 2.453125 -11.828125 L 5.15625 -11.84375 L 4.96875 -10.65625 C 5.382812 -11.113281 5.847656 -11.460938 6.359375 -11.703125 C 6.867188 -11.941406 7.4375 -12.054688 8.0625 -12.046875 C 8.59375 -12.035156 9.054688 -11.941406 9.453125 -11.765625 C 9.859375 -11.597656 10.207031 -11.363281 10.5 -11.0625 C 10.789062 -10.769531 11.023438 -10.429688 11.203125 -10.046875 C 11.378906 -9.660156 11.507812 -9.25 11.59375 -8.8125 C 11.6875 -8.382812 11.738281 -7.9375 11.75 -7.46875 C 11.769531 -7.007812 11.753906 -6.554688 11.703125 -6.109375 Z M 8.734375 -6.109375 C 8.773438 -6.441406 8.796875 -6.804688 8.796875 -7.203125 C 8.796875 -7.609375 8.738281 -7.984375 8.625 -8.328125 C 8.519531 -8.671875 8.347656 -8.960938 8.109375 -9.203125 C 7.867188 -9.441406 7.523438 -9.566406 7.078125 -9.578125 C 6.597656 -9.585938 6.171875 -9.488281 5.796875 -9.28125 C 5.429688 -9.070312 5.109375 -8.773438 4.828125 -8.390625 L 3.953125 -3.4375 C 4.109375 -3.019531 4.335938 -2.710938 4.640625 -2.515625 C 4.953125 -2.328125 5.328125 -2.222656 5.765625 -2.203125 C 6.265625 -2.191406 6.6875 -2.296875 7.03125 -2.515625 C 7.382812 -2.742188 7.675781 -3.039062 7.90625 -3.40625 C 8.144531 -3.769531 8.328125 -4.171875 8.453125 -4.609375 C 8.578125 -5.046875 8.664062 -5.46875 8.71875 -5.875 Z M 8.734375 -6.109375 "/></g></g></g><g fill="#ffffff" fill-opacity="1"><g transform="translate(16.570354, 176.341249)"><g><path d="M 10.515625 -12.0625 C 10.898438 -12.0625 11.273438 -12.03125 11.640625 -11.96875 C 12.003906 -11.914062 12.375 -11.84375 12.75 -11.75 L 11.9375 -8.71875 C 11.5625 -8.8125 11.179688 -8.882812 10.796875 -8.9375 C 10.421875 -9 10.035156 -9.035156 9.640625 -9.046875 C 8.097656 -9.054688 6.914062 -8.414062 6.09375 -7.125 L 4.859375 0 L 1.90625 0 L 3.953125 -11.828125 L 6.71875 -11.828125 L 6.40625 -9.890625 C 6.664062 -10.203125 6.945312 -10.492188 7.25 -10.765625 C 7.550781 -11.035156 7.867188 -11.265625 8.203125 -11.453125 C 8.546875 -11.648438 8.910156 -11.800781 9.296875 -11.90625 C 9.679688 -12.007812 10.085938 -12.0625 10.515625 -12.0625 Z M 10.515625 -12.0625 "/></g></g></g><g fill="#ffffff" fill-opacity="1"><g transform="translate(29.71064, 176.341249)"><g><path d="M 1 -5.953125 C 1.09375 -6.773438 1.304688 -7.5625 1.640625 -8.3125 C 1.972656 -9.0625 2.40625 -9.71875 2.9375 -10.28125 C 3.46875 -10.84375 4.097656 -11.28125 4.828125 -11.59375 C 5.554688 -11.914062 6.363281 -12.066406 7.25 -12.046875 C 8.101562 -12.035156 8.832031 -11.859375 9.4375 -11.515625 C 10.050781 -11.179688 10.550781 -10.738281 10.9375 -10.1875 C 11.320312 -9.644531 11.585938 -9.015625 11.734375 -8.296875 C 11.878906 -7.585938 11.910156 -6.84375 11.828125 -6.0625 L 11.796875 -5.8125 C 11.691406 -4.976562 11.472656 -4.191406 11.140625 -3.453125 C 10.816406 -2.710938 10.382812 -2.066406 9.84375 -1.515625 C 9.3125 -0.960938 8.679688 -0.523438 7.953125 -0.203125 C 7.234375 0.109375 6.429688 0.253906 5.546875 0.234375 C 4.703125 0.210938 3.972656 0.0390625 3.359375 -0.28125 C 2.753906 -0.613281 2.257812 -1.050781 1.875 -1.59375 C 1.488281 -2.144531 1.222656 -2.773438 1.078125 -3.484375 C 0.929688 -4.191406 0.894531 -4.9375 0.96875 -5.71875 Z M 3.9375 -5.71875 C 3.894531 -5.351562 3.878906 -4.96875 3.890625 -4.5625 C 3.898438 -4.15625 3.960938 -3.78125 4.078125 -3.4375 C 4.203125 -3.09375 4.394531 -2.800781 4.65625 -2.5625 C 4.925781 -2.320312 5.296875 -2.195312 5.765625 -2.1875 C 6.265625 -2.175781 6.691406 -2.28125 7.046875 -2.5 C 7.410156 -2.71875 7.710938 -3.003906 7.953125 -3.359375 C 8.203125 -3.710938 8.394531 -4.101562 8.53125 -4.53125 C 8.664062 -4.96875 8.765625 -5.394531 8.828125 -5.8125 L 8.84375 -6.046875 C 8.863281 -6.285156 8.878906 -6.535156 8.890625 -6.796875 C 8.898438 -7.066406 8.890625 -7.332031 8.859375 -7.59375 C 8.828125 -7.851562 8.769531 -8.097656 8.6875 -8.328125 C 8.613281 -8.566406 8.503906 -8.773438 8.359375 -8.953125 C 8.222656 -9.140625 8.046875 -9.289062 7.828125 -9.40625 C 7.609375 -9.519531 7.34375 -9.582031 7.03125 -9.59375 C 6.53125 -9.613281 6.097656 -9.515625 5.734375 -9.296875 C 5.367188 -9.078125 5.0625 -8.785156 4.8125 -8.421875 C 4.570312 -8.066406 4.378906 -7.671875 4.234375 -7.234375 C 4.097656 -6.796875 4.003906 -6.367188 3.953125 -5.953125 Z M 3.9375 -5.71875 "/></g></g></g><g fill="#ffffff" fill-opacity="1"><g transform="translate(42.850927, 176.341249)"><g><path d="M 4.171875 -11.828125 L 10.0625 -11.828125 L 7.984375 0.265625 C 7.890625 1.035156 7.691406 1.703125 7.390625 2.265625 C 7.085938 2.835938 6.695312 3.3125 6.21875 3.6875 C 5.75 4.0625 5.195312 4.335938 4.5625 4.515625 C 3.9375 4.703125 3.242188 4.796875 2.484375 4.796875 C 2.148438 4.785156 1.820312 4.765625 1.5 4.734375 C 1.175781 4.710938 0.851562 4.671875 0.53125 4.609375 L 0.921875 2.125 C 1.171875 2.175781 1.429688 2.210938 1.703125 2.234375 C 1.984375 2.265625 2.253906 2.285156 2.515625 2.296875 C 3.191406 2.304688 3.742188 2.140625 4.171875 1.796875 C 4.609375 1.453125 4.882812 0.941406 5 0.265625 L 6.625 -9.34375 L 3.734375 -9.34375 Z M 7.390625 -14.796875 C 7.390625 -15.035156 7.429688 -15.257812 7.515625 -15.46875 C 7.597656 -15.675781 7.710938 -15.851562 7.859375 -16 C 8.015625 -16.144531 8.195312 -16.257812 8.40625 -16.34375 C 8.613281 -16.4375 8.835938 -16.484375 9.078125 -16.484375 C 9.316406 -16.492188 9.535156 -16.460938 9.734375 -16.390625 C 9.941406 -16.316406 10.125 -16.207031 10.28125 -16.0625 C 10.4375 -15.925781 10.5625 -15.757812 10.65625 -15.5625 C 10.75 -15.363281 10.796875 -15.144531 10.796875 -14.90625 C 10.796875 -14.664062 10.75 -14.441406 10.65625 -14.234375 C 10.570312 -14.023438 10.453125 -13.847656 10.296875 -13.703125 C 10.140625 -13.554688 9.957031 -13.441406 9.75 -13.359375 C 9.539062 -13.273438 9.316406 -13.234375 9.078125 -13.234375 C 8.835938 -13.222656 8.613281 -13.253906 8.40625 -13.328125 C 8.207031 -13.410156 8.03125 -13.519531 7.875 -13.65625 C 7.726562 -13.789062 7.609375 -13.953125 7.515625 -14.140625 C 7.429688 -14.335938 7.390625 -14.554688 7.390625 -14.796875 Z M 7.390625 -14.796875 "/></g></g></g><g fill="#ffffff" fill-opacity="1"><g transform="translate(55.991213, 176.341249)"><g><path d="M 6.078125 0.21875 C 5.265625 0.207031 4.53125 0.0546875 3.875 -0.234375 C 3.226562 -0.535156 2.679688 -0.9375 2.234375 -1.4375 C 1.785156 -1.945312 1.453125 -2.546875 1.234375 -3.234375 C 1.023438 -3.921875 0.957031 -4.664062 1.03125 -5.46875 L 1.078125 -5.921875 C 1.171875 -6.742188 1.394531 -7.53125 1.75 -8.28125 C 2.101562 -9.03125 2.554688 -9.6875 3.109375 -10.25 C 3.671875 -10.8125 4.320312 -11.253906 5.0625 -11.578125 C 5.800781 -11.910156 6.609375 -12.066406 7.484375 -12.046875 C 8.304688 -12.023438 9.015625 -11.851562 9.609375 -11.53125 C 10.210938 -11.207031 10.695312 -10.78125 11.0625 -10.25 C 11.4375 -9.71875 11.691406 -9.101562 11.828125 -8.40625 C 11.960938 -7.71875 11.984375 -6.988281 11.890625 -6.21875 L 11.6875 -4.9375 L 3.953125 -4.9375 C 3.941406 -4.550781 3.988281 -4.195312 4.09375 -3.875 C 4.207031 -3.550781 4.367188 -3.269531 4.578125 -3.03125 C 4.785156 -2.789062 5.039062 -2.597656 5.34375 -2.453125 C 5.65625 -2.304688 6.003906 -2.234375 6.390625 -2.234375 C 7.015625 -2.210938 7.597656 -2.316406 8.140625 -2.546875 C 8.691406 -2.785156 9.179688 -3.125 9.609375 -3.5625 L 10.953125 -1.90625 C 10.691406 -1.53125 10.375 -1.207031 10 -0.9375 C 9.625 -0.664062 9.21875 -0.441406 8.78125 -0.265625 C 8.351562 -0.0976562 7.90625 0.0234375 7.4375 0.109375 C 6.96875 0.191406 6.515625 0.226562 6.078125 0.21875 Z M 7.265625 -9.59375 C 6.878906 -9.613281 6.523438 -9.550781 6.203125 -9.40625 C 5.890625 -9.257812 5.609375 -9.0625 5.359375 -8.8125 C 5.117188 -8.5625 4.90625 -8.28125 4.71875 -7.96875 C 4.539062 -7.65625 4.382812 -7.335938 4.25 -7.015625 L 9.078125 -7.015625 L 9.125 -7.296875 C 9.175781 -7.609375 9.171875 -7.90625 9.109375 -8.1875 C 9.046875 -8.46875 8.929688 -8.707031 8.765625 -8.90625 C 8.597656 -9.113281 8.390625 -9.273438 8.140625 -9.390625 C 7.890625 -9.515625 7.597656 -9.582031 7.265625 -9.59375 Z M 7.265625 -9.59375 "/></g></g></g><g fill="#ffffff" fill-opacity="1"><g transform="translate(69.1315, 176.341249)"><g><path d="M 5.8125 -2.203125 C 6.101562 -2.191406 6.378906 -2.222656 6.640625 -2.296875 C 6.910156 -2.378906 7.148438 -2.5 7.359375 -2.65625 C 7.578125 -2.8125 7.757812 -3.003906 7.90625 -3.234375 C 8.0625 -3.472656 8.160156 -3.738281 8.203125 -4.03125 L 10.984375 -4.0625 C 10.941406 -3.382812 10.757812 -2.773438 10.4375 -2.234375 C 10.113281 -1.703125 9.703125 -1.25 9.203125 -0.875 C 8.710938 -0.507812 8.15625 -0.226562 7.53125 -0.03125 C 6.914062 0.15625 6.289062 0.242188 5.65625 0.234375 C 4.8125 0.210938 4.082031 0.0390625 3.46875 -0.28125 C 2.863281 -0.613281 2.375 -1.050781 2 -1.59375 C 1.625 -2.132812 1.363281 -2.757812 1.21875 -3.46875 C 1.070312 -4.175781 1.035156 -4.921875 1.109375 -5.703125 L 1.140625 -6.046875 C 1.242188 -6.867188 1.457031 -7.644531 1.78125 -8.375 C 2.113281 -9.113281 2.546875 -9.757812 3.078125 -10.3125 C 3.609375 -10.863281 4.234375 -11.296875 4.953125 -11.609375 C 5.671875 -11.921875 6.46875 -12.066406 7.34375 -12.046875 C 8.019531 -12.035156 8.628906 -11.914062 9.171875 -11.6875 C 9.722656 -11.457031 10.191406 -11.140625 10.578125 -10.734375 C 10.960938 -10.335938 11.25 -9.859375 11.4375 -9.296875 C 11.632812 -8.742188 11.710938 -8.128906 11.671875 -7.453125 L 8.890625 -7.453125 C 8.910156 -7.742188 8.882812 -8.019531 8.8125 -8.28125 C 8.75 -8.539062 8.640625 -8.765625 8.484375 -8.953125 C 8.335938 -9.140625 8.144531 -9.289062 7.90625 -9.40625 C 7.675781 -9.519531 7.40625 -9.582031 7.09375 -9.59375 C 6.59375 -9.613281 6.164062 -9.515625 5.8125 -9.296875 C 5.457031 -9.085938 5.160156 -8.8125 4.921875 -8.46875 C 4.691406 -8.125 4.507812 -7.738281 4.375 -7.3125 C 4.25 -6.882812 4.160156 -6.460938 4.109375 -6.046875 L 4.0625 -5.71875 C 4.03125 -5.363281 4.015625 -4.984375 4.015625 -4.578125 C 4.015625 -4.171875 4.066406 -3.796875 4.171875 -3.453125 C 4.285156 -3.109375 4.46875 -2.816406 4.71875 -2.578125 C 4.96875 -2.335938 5.332031 -2.210938 5.8125 -2.203125 Z M 5.8125 -2.203125 "/></g></g></g><g fill="#ffffff" fill-opacity="1"><g transform="translate(82.271786, 176.341249)"><g><path d="M 8.328125 -14.734375 L 7.828125 -11.828125 L 12.109375 -11.828125 L 11.71875 -9.59375 L 7.4375 -9.59375 L 6.609375 -4.5 C 6.566406 -4.175781 6.554688 -3.882812 6.578125 -3.625 C 6.609375 -3.363281 6.679688 -3.132812 6.796875 -2.9375 C 6.910156 -2.738281 7.070312 -2.582031 7.28125 -2.46875 C 7.5 -2.351562 7.78125 -2.289062 8.125 -2.28125 C 8.539062 -2.269531 8.957031 -2.296875 9.375 -2.359375 C 9.789062 -2.421875 10.207031 -2.5 10.625 -2.59375 L 10.71875 -0.484375 C 10.457031 -0.335938 10.179688 -0.21875 9.890625 -0.125 C 9.597656 -0.03125 9.296875 0.0390625 8.984375 0.09375 C 8.671875 0.144531 8.359375 0.179688 8.046875 0.203125 C 7.734375 0.222656 7.429688 0.226562 7.140625 0.21875 C 6.472656 0.207031 5.898438 0.0859375 5.421875 -0.140625 C 4.953125 -0.367188 4.566406 -0.675781 4.265625 -1.0625 C 3.972656 -1.457031 3.769531 -1.921875 3.65625 -2.453125 C 3.539062 -2.992188 3.519531 -3.578125 3.59375 -4.203125 L 4.46875 -9.59375 L 1.84375 -9.59375 L 2.234375 -11.828125 L 4.859375 -11.828125 L 5.375 -14.734375 Z M 8.328125 -14.734375 "/></g></g></g><g fill="#ffffff" fill-opacity="1"><g transform="translate(95.412073, 176.341249)"><g><path d="M 8.390625 -3.3125 C 8.421875 -3.5 8.398438 -3.65625 8.328125 -3.78125 C 8.253906 -3.914062 8.148438 -4.03125 8.015625 -4.125 C 7.890625 -4.226562 7.738281 -4.316406 7.5625 -4.390625 C 7.382812 -4.460938 7.203125 -4.519531 7.015625 -4.5625 C 6.835938 -4.613281 6.660156 -4.648438 6.484375 -4.671875 C 6.316406 -4.703125 6.175781 -4.734375 6.0625 -4.765625 C 5.601562 -4.878906 5.128906 -5.019531 4.640625 -5.1875 C 4.148438 -5.351562 3.703125 -5.570312 3.296875 -5.84375 C 2.890625 -6.125 2.554688 -6.460938 2.296875 -6.859375 C 2.046875 -7.265625 1.929688 -7.75 1.953125 -8.3125 C 1.972656 -8.75 2.066406 -9.144531 2.234375 -9.5 C 2.398438 -9.863281 2.613281 -10.179688 2.875 -10.453125 C 3.144531 -10.734375 3.453125 -10.972656 3.796875 -11.171875 C 4.140625 -11.378906 4.503906 -11.546875 4.890625 -11.671875 C 5.285156 -11.804688 5.679688 -11.90625 6.078125 -11.96875 C 6.484375 -12.03125 6.878906 -12.054688 7.265625 -12.046875 C 7.859375 -12.035156 8.4375 -11.957031 9 -11.8125 C 9.570312 -11.664062 10.082031 -11.4375 10.53125 -11.125 C 10.976562 -10.8125 11.335938 -10.414062 11.609375 -9.9375 C 11.890625 -9.457031 12.03125 -8.882812 12.03125 -8.21875 L 9.078125 -8.234375 C 9.078125 -8.515625 9.03125 -8.753906 8.9375 -8.953125 C 8.84375 -9.160156 8.707031 -9.328125 8.53125 -9.453125 C 8.351562 -9.585938 8.144531 -9.6875 7.90625 -9.75 C 7.664062 -9.8125 7.414062 -9.84375 7.15625 -9.84375 C 6.925781 -9.84375 6.679688 -9.816406 6.421875 -9.765625 C 6.171875 -9.722656 5.929688 -9.648438 5.703125 -9.546875 C 5.484375 -9.441406 5.289062 -9.300781 5.125 -9.125 C 4.957031 -8.945312 4.851562 -8.726562 4.8125 -8.46875 C 4.757812 -8.1875 4.800781 -7.960938 4.9375 -7.796875 C 5.082031 -7.628906 5.265625 -7.492188 5.484375 -7.390625 C 5.703125 -7.296875 5.9375 -7.222656 6.1875 -7.171875 C 6.445312 -7.117188 6.671875 -7.078125 6.859375 -7.046875 C 7.347656 -6.953125 7.859375 -6.820312 8.390625 -6.65625 C 8.921875 -6.5 9.398438 -6.285156 9.828125 -6.015625 C 10.265625 -5.753906 10.617188 -5.414062 10.890625 -5 C 11.160156 -4.582031 11.285156 -4.066406 11.265625 -3.453125 C 11.242188 -2.992188 11.144531 -2.582031 10.96875 -2.21875 C 10.789062 -1.863281 10.5625 -1.546875 10.28125 -1.265625 C 10 -0.992188 9.671875 -0.757812 9.296875 -0.5625 C 8.929688 -0.363281 8.546875 -0.203125 8.140625 -0.078125 C 7.742188 0.0351562 7.332031 0.113281 6.90625 0.15625 C 6.488281 0.207031 6.09375 0.234375 5.71875 0.234375 C 5.113281 0.222656 4.519531 0.132812 3.9375 -0.03125 C 3.351562 -0.195312 2.828125 -0.445312 2.359375 -0.78125 C 1.898438 -1.113281 1.523438 -1.523438 1.234375 -2.015625 C 0.953125 -2.503906 0.8125 -3.085938 0.8125 -3.765625 L 3.625 -3.75 C 3.632812 -3.425781 3.703125 -3.148438 3.828125 -2.921875 C 3.953125 -2.703125 4.117188 -2.519531 4.328125 -2.375 C 4.535156 -2.238281 4.769531 -2.132812 5.03125 -2.0625 C 5.300781 -2 5.582031 -1.96875 5.875 -1.96875 C 6.101562 -1.96875 6.351562 -1.984375 6.625 -2.015625 C 6.90625 -2.054688 7.164062 -2.125 7.40625 -2.21875 C 7.644531 -2.320312 7.851562 -2.457031 8.03125 -2.625 C 8.21875 -2.800781 8.335938 -3.03125 8.390625 -3.3125 Z M 8.390625 -3.3125 "/></g></g></g></svg>