<svg xmlns="http://www.w3.org/2000/svg" xmlns:xlink="http://www.w3.org/1999/xlink" width="500" zoomAndPan="magnify" viewBox="0 0 375 225" height="300" preserveAspectRatio="xMidYMid meet" version="1.0"><defs><g/></defs><g fill="#000000" fill-opacity="1"><g transform="translate(0.000000000000042633, 128.52151)"><g><path d="M 45.417969 -31.632812 C 48.148438 -41.753906 50.945312 -51.8125 53.742188 -61.867188 C 54.140625 -63.332031 54.542969 -64.730469 54.675781 -66.261719 C 52.542969 -67.128906 51.8125 -66.996094 51.078125 -65.394531 C 49.878906 -62.398438 48.613281 -59.402344 47.75 -56.273438 C 45.152344 -47.28125 42.753906 -38.292969 40.289062 -29.300781 C 40.023438 -28.304688 39.757812 -27.371094 39.492188 -26.570312 C 38.957031 -26.304688 38.691406 -26.171875 38.425781 -26.105469 C 31.765625 -24.375 25.105469 -22.640625 18.378906 -20.976562 C 17.980469 -20.84375 17.449219 -20.976562 16.78125 -20.976562 C 17.449219 -23.507812 17.980469 -25.90625 18.578125 -28.234375 C 19.179688 -30.566406 19.777344 -32.964844 20.378906 -35.296875 C 20.910156 -37.691406 21.511719 -40.023438 22.109375 -42.421875 C 22.640625 -44.75 23.574219 -47.015625 23.640625 -49.414062 C 21.976562 -50.078125 21.578125 -50.144531 20.910156 -49.878906 C 19.976562 -49.546875 19.445312 -48.8125 19.179688 -47.949219 C 18.648438 -46.484375 18.113281 -45.085938 17.714844 -43.621094 C 16.25 -38.027344 14.851562 -32.433594 13.453125 -26.835938 C 12.785156 -24.175781 12.121094 -21.511719 11.519531 -18.847656 C 9.589844 -18.113281 7.726562 -17.449219 5.992188 -16.648438 C 4.261719 -15.78125 2.132812 -15.382812 1.066406 -13.121094 C 1.664062 -12.851562 2.265625 -12.386719 2.730469 -12.453125 C 3.796875 -12.519531 4.929688 -12.785156 5.992188 -13.050781 C 7.390625 -13.519531 8.65625 -14.316406 10.390625 -14.449219 C 10.253906 -13.585938 10.1875 -12.851562 10.054688 -12.1875 C 8.921875 -5.992188 7.660156 0.132812 6.527344 6.328125 C 6.261719 7.992188 6.191406 9.722656 6.191406 11.453125 C 6.191406 13.121094 6.992188 13.453125 8.789062 12.652344 C 8.855469 9.589844 13.851562 -11.453125 15.714844 -16.25 C 15.917969 -16.382812 16.183594 -16.582031 16.449219 -16.648438 C 23.375 -18.648438 30.300781 -20.644531 37.226562 -22.640625 C 37.558594 -22.707031 37.960938 -22.574219 38.425781 -22.507812 C 38.292969 -21.777344 38.226562 -21.175781 38.09375 -20.578125 C 37.09375 -16.449219 36.027344 -12.320312 35.09375 -8.191406 C 33.429688 -0.867188 31.832031 6.460938 30.300781 13.851562 C 29.96875 15.582031 29.96875 17.449219 29.96875 19.246094 C 29.96875 20.113281 30.300781 20.246094 31.832031 20.113281 C 33.628906 12.785156 35.429688 5.394531 37.359375 -1.929688 C 39.292969 -9.390625 41.15625 -16.847656 43.421875 -24.175781 C 45.683594 -24.707031 47.75 -25.238281 49.878906 -25.707031 C 51.144531 -25.972656 52.410156 -26.238281 53.742188 -25.707031 C 54.675781 -25.371094 55.671875 -25.507812 56.539062 -26.105469 C 56.671875 -27.105469 56.140625 -27.570312 55.472656 -27.835938 C 54.742188 -28.167969 53.875 -28.4375 53.144531 -28.371094 C 51.210938 -28.304688 49.28125 -28.101562 47.347656 -27.902344 C 46.484375 -27.835938 45.617188 -27.703125 44.550781 -27.636719 C 44.550781 -29.167969 45.085938 -30.433594 45.417969 -31.632812 Z M 45.417969 -31.632812 "/></g></g></g><g fill="#000000" fill-opacity="1"><g transform="translate(52.143821, 128.52151)"><g><path d="M 23.042969 -10.921875 C 22.574219 -10.523438 22.042969 -10.1875 21.644531 -9.65625 C 18.914062 -6.527344 15.648438 -4.195312 12.054688 -2.53125 C 10.855469 -1.996094 9.523438 -1.730469 8.191406 -1.53125 C 6.792969 -1.398438 5.660156 -2.199219 4.929688 -3.53125 C 4.261719 -4.660156 3.796875 -5.925781 4.128906 -7.660156 C 6.859375 -8.65625 9.058594 -10.1875 10.921875 -12.386719 C 11.789062 -13.320312 12.585938 -14.449219 13.050781 -15.648438 C 13.917969 -17.847656 13.1875 -19.710938 11.253906 -20.644531 C 8.855469 -21.710938 6.59375 -21.308594 4.726562 -19.3125 C 1.730469 -16.183594 -0.132812 -12.320312 -0.398438 -7.726562 C -0.597656 -3.664062 1.332031 -0.867188 4.792969 0.199219 C 7.660156 1 10.457031 0.867188 13.1875 -0.464844 C 16.183594 -1.863281 18.914062 -3.863281 21.308594 -6.460938 C 22.042969 -7.324219 22.707031 -8.324219 23.308594 -9.390625 C 23.574219 -9.722656 23.507812 -10.320312 23.574219 -10.789062 C 23.242188 -10.921875 23.109375 -10.988281 23.042969 -10.921875 Z M 8.855469 -18.246094 C 9.457031 -17.449219 9.191406 -16.582031 8.789062 -15.78125 C 7.859375 -13.917969 6.660156 -12.320312 4.863281 -10.988281 C 5.394531 -14.585938 6.59375 -16.714844 8.855469 -18.246094 Z M 8.855469 -18.246094 "/></g></g></g><g fill="#000000" fill-opacity="1"><g transform="translate(72.455274, 128.52151)"><g><path d="M 6.394531 -15.917969 C 10.253906 -28.636719 14.851562 -41.089844 19.777344 -53.476562 C 21.378906 -57.472656 23.308594 -61.402344 25.039062 -65.394531 C 25.171875 -65.664062 25.105469 -65.996094 25.171875 -66.328125 C 23.640625 -66.929688 22.507812 -66.261719 21.777344 -65.128906 C 20.777344 -63.597656 19.84375 -62 19.046875 -60.335938 C 12.652344 -47.414062 7.457031 -34.03125 2.730469 -20.378906 C 0.933594 -15.117188 -0.800781 -9.789062 -1.597656 -4.261719 C -1.863281 -2.0625 -1.996094 0.199219 -1.796875 2.398438 C -1.53125 5.792969 0.332031 7.726562 3.664062 8.390625 C 4.863281 8.589844 6.125 8.722656 7.257812 8.457031 C 13.917969 7.257812 18.246094 3.195312 20.976562 -2.796875 C 20.976562 -2.863281 20.910156 -2.996094 20.910156 -3.0625 C 20.246094 -3.664062 19.511719 -3.53125 18.980469 -2.929688 C 18.378906 -2.332031 17.847656 -1.53125 17.316406 -0.800781 C 15.515625 1.53125 13.386719 3.53125 10.722656 4.996094 C 9.789062 5.527344 8.722656 6.058594 7.726562 6.328125 C 5.394531 6.992188 4.261719 6.261719 3.597656 4.0625 C 2.996094 2.132812 3.0625 0.265625 3.261719 -1.664062 C 3.730469 -6.59375 4.929688 -11.253906 6.394531 -15.917969 Z M 6.394531 -15.917969 "/></g></g></g><g fill="#000000" fill-opacity="1"><g transform="translate(95.830089, 128.52151)"><g><path d="M 6.394531 -15.917969 C 10.253906 -28.636719 14.851562 -41.089844 19.777344 -53.476562 C 21.378906 -57.472656 23.308594 -61.402344 25.039062 -65.394531 C 25.171875 -65.664062 25.105469 -65.996094 25.171875 -66.328125 C 23.640625 -66.929688 22.507812 -66.261719 21.777344 -65.128906 C 20.777344 -63.597656 19.84375 -62 19.046875 -60.335938 C 12.652344 -47.414062 7.457031 -34.03125 2.730469 -20.378906 C 0.933594 -15.117188 -0.800781 -9.789062 -1.597656 -4.261719 C -1.863281 -2.0625 -1.996094 0.199219 -1.796875 2.398438 C -1.53125 5.792969 0.332031 7.726562 3.664062 8.390625 C 4.863281 8.589844 6.125 8.722656 7.257812 8.457031 C 13.917969 7.257812 18.246094 3.195312 20.976562 -2.796875 C 20.976562 -2.863281 20.910156 -2.996094 20.910156 -3.0625 C 20.246094 -3.664062 19.511719 -3.53125 18.980469 -2.929688 C 18.378906 -2.332031 17.847656 -1.53125 17.316406 -0.800781 C 15.515625 1.53125 13.386719 3.53125 10.722656 4.996094 C 9.789062 5.527344 8.722656 6.058594 7.726562 6.328125 C 5.394531 6.992188 4.261719 6.261719 3.597656 4.0625 C 2.996094 2.132812 3.0625 0.265625 3.261719 -1.664062 C 3.730469 -6.59375 4.929688 -11.253906 6.394531 -15.917969 Z M 6.394531 -15.917969 "/></g></g></g><g fill="#000000" fill-opacity="1"><g transform="translate(119.204904, 128.52151)"><g><path d="M 15.847656 -6.792969 C 14.585938 -6.394531 13.320312 -5.992188 11.921875 -6.527344 C 12.320312 -7.523438 12.652344 -8.457031 12.984375 -9.324219 C 13.785156 -11.519531 14.449219 -13.71875 14.519531 -16.050781 C 14.652344 -19.046875 13.519531 -20.777344 11.386719 -21.042969 C 10.789062 -21.109375 10.1875 -21.042969 9.589844 -20.910156 C 7.726562 -20.511719 6.125 -19.3125 4.660156 -17.714844 C 3.128906 -16.050781 1.996094 -14.117188 2.0625 -11.519531 C 1.332031 -10.320312 0.597656 -9.191406 -0.0664062 -8.058594 C -0.800781 -6.59375 -1.53125 -5.0625 -1.796875 -3.328125 C -2.132812 -0.933594 -1.53125 0.664062 0.132812 1.199219 C 1.132812 1.53125 2.265625 1.53125 3.261719 1.332031 C 4.863281 1.066406 6.328125 0 7.660156 -1.332031 C 8.722656 -2.332031 9.789062 -3.394531 10.988281 -4.59375 C 15.449219 -4.726562 15.984375 -4.863281 17.648438 -6.527344 C 16.648438 -7.125 16.648438 -7.125 15.847656 -6.792969 Z M 2.0625 -0.132812 C 1.398438 -0.0664062 0.867188 -0.464844 0.867188 -1.398438 C 0.800781 -2.265625 0.867188 -3.195312 1.066406 -4.0625 C 1.53125 -5.792969 2.132812 -7.457031 3.195312 -9.058594 C 4.128906 -8.257812 4.792969 -7.59375 5.527344 -6.992188 C 6.261719 -6.460938 7.058594 -5.925781 7.859375 -5.394531 C 6.726562 -3.0625 3.796875 -0.464844 2.0625 -0.132812 Z M 9.390625 -7.457031 C 7.792969 -8.257812 6.792969 -9.390625 6.328125 -11.453125 C 6.058594 -12.652344 6.058594 -13.585938 6.59375 -14.652344 C 7.726562 -16.78125 9.125 -18.511719 10.988281 -19.246094 C 11.855469 -18.78125 11.988281 -17.714844 11.988281 -16.714844 C 11.988281 -13.320312 11.054688 -10.253906 9.390625 -7.457031 Z M 9.390625 -7.457031 "/></g></g></g><g fill="#000000" fill-opacity="1"><g transform="translate(135.054492, 128.52151)"><g/></g></g><g fill="#000000" fill-opacity="1"><g transform="translate(155.9653, 128.52151)"><g><path d="M 26.171875 -15.25 C 24.90625 -14.382812 23.707031 -13.453125 22.574219 -12.453125 C 18.78125 -8.921875 15.050781 -5.328125 11.253906 -1.796875 C 10.523438 -1.132812 9.789062 -0.464844 8.921875 0.332031 C 7.324219 -1.996094 6.328125 -4.394531 5.660156 -6.925781 C 5.0625 -9.125 5.394531 -11.1875 6.394531 -13.121094 C 7.792969 -15.917969 9.988281 -17.980469 12.917969 -19.246094 C 13.386719 -19.445312 13.984375 -19.246094 14.71875 -19.246094 C 14.449219 -17.714844 14.25 -16.449219 13.917969 -14.585938 C 14.851562 -14.851562 15.648438 -14.851562 15.917969 -15.183594 C 16.78125 -16.183594 17.515625 -17.25 18.113281 -18.445312 C 18.578125 -19.445312 18.179688 -20.445312 17.113281 -20.976562 C 16.515625 -21.242188 15.78125 -21.445312 15.117188 -21.511719 C 9.65625 -21.976562 3.195312 -17.78125 1.398438 -12.652344 C 0.800781 -10.921875 0.464844 -9.058594 1.132812 -7.257812 C 1.730469 -5.394531 2.464844 -3.464844 3.328125 -1.664062 C 4.128906 0.0664062 5.0625 1.730469 5.925781 3.464844 C 5.128906 4.328125 4.460938 5.0625 3.796875 5.859375 C 2.464844 7.59375 1.066406 9.324219 -0.199219 11.1875 C -0.734375 11.988281 -1 13.050781 -1.132812 14.050781 C -1.332031 15.449219 -0.53125 16.25 1 16.449219 C 2.199219 16.582031 3.394531 16.316406 4.527344 15.714844 C 6.191406 14.785156 7.726562 13.652344 8.992188 12.121094 C 10.457031 10.457031 11.253906 8.523438 10.921875 6.261719 C 10.855469 5.792969 10.789062 5.261719 10.722656 4.726562 C 11.519531 3.863281 12.253906 3.0625 12.984375 2.265625 C 17.714844 -2.53125 22.441406 -7.257812 27.105469 -12.054688 C 27.835938 -12.785156 28.570312 -13.453125 29.234375 -14.25 C 29.5 -14.585938 29.566406 -15.050781 29.769531 -15.515625 C 28.304688 -16.25 27.171875 -16.050781 26.171875 -15.25 Z M 6.859375 11.453125 C 6.058594 12.851562 4.929688 13.917969 3.128906 14.183594 C 4.0625 11.921875 5.527344 10.1875 7.390625 8.390625 C 7.925781 9.789062 7.390625 10.65625 6.859375 11.453125 Z M 6.859375 11.453125 "/></g></g></g><g fill="#000000" fill-opacity="1"><g transform="translate(179.473309, 128.52151)"><g><path d="M 34.960938 -42.621094 C 32.699219 -42.820312 30.5 -43.019531 28.234375 -42.886719 C 23.308594 -42.753906 18.3125 -42.421875 13.386719 -42.15625 C 12.71875 -42.15625 12.054688 -42.289062 11.253906 -42.355469 C 11.722656 -44.152344 12.121094 -45.75 12.519531 -47.28125 C 12.917969 -48.8125 13.851562 -50.210938 13.785156 -51.945312 C 12.1875 -52.609375 11.054688 -52.078125 10.390625 -50.8125 C 9.589844 -49.28125 8.921875 -47.683594 8.324219 -46.082031 C 7.859375 -44.683594 7.457031 -43.21875 6.992188 -41.6875 C 5.0625 -41.421875 3.261719 -41.222656 1.464844 -40.957031 C -1.597656 -40.554688 -4.59375 -40.15625 -7.59375 -39.625 C -8.722656 -39.425781 -9.988281 -39.359375 -10.789062 -38.160156 C -9.191406 -37.292969 -9.191406 -37.292969 -8.257812 -37.425781 C -3.996094 -37.960938 0.199219 -38.492188 4.394531 -39.023438 C 4.929688 -39.089844 5.527344 -38.890625 6.191406 -38.824219 C 5.992188 -37.824219 5.792969 -37.027344 5.59375 -36.292969 C 3.128906 -26.769531 0.800781 -17.179688 -1.132812 -7.59375 C -2.597656 -0.53125 -3.996094 6.527344 -4.792969 13.71875 C -4.863281 14.71875 -4.863281 15.714844 -4.792969 16.714844 C -4.726562 17.179688 -4.460938 17.714844 -3.597656 17.582031 C -3.394531 16.78125 -3.128906 15.984375 -2.929688 15.117188 C -2.597656 13.320312 -2.265625 11.519531 -1.929688 9.722656 C 1.53125 -6.328125 6.125 -22.109375 10.121094 -38.027344 C 10.253906 -38.625 10.589844 -39.089844 10.855469 -39.625 C 19.445312 -40.421875 27.835938 -41.421875 36.425781 -41.953125 C 35.960938 -42.222656 35.429688 -42.621094 34.960938 -42.621094 Z M 34.960938 -42.621094 "/></g></g></g><g fill="#000000" fill-opacity="1"><g transform="translate(190.461466, 128.52151)"><g><path d="M 19.511719 -18.847656 C 19.046875 -20.578125 17.980469 -21.378906 16.183594 -21.242188 C 14.785156 -21.109375 13.652344 -20.578125 12.71875 -19.511719 C 11.054688 -17.515625 9.390625 -15.449219 7.660156 -13.453125 C 7.257812 -12.917969 6.792969 -12.386719 5.925781 -11.453125 C 6.191406 -15.117188 7.925781 -17.847656 8.125 -21.109375 C 6.792969 -21.578125 5.992188 -21.378906 5.460938 -20.445312 C 5.0625 -19.84375 4.726562 -19.179688 4.460938 -18.578125 C 2.398438 -13.71875 0.332031 -8.855469 -1.730469 -3.996094 C -2.0625 -3.195312 -2.332031 -2.332031 -2.53125 -1.464844 C -2.863281 -0.0664062 -2.199219 0.734375 -0.734375 0.734375 C 0.265625 0.734375 1.265625 0.464844 1.996094 -0.332031 C 2.863281 -1.132812 3.730469 -1.996094 4.460938 -2.996094 C 5.992188 -4.929688 7.324219 -6.925781 8.789062 -8.855469 C 10.589844 -11.253906 12.453125 -13.652344 14.382812 -16.050781 C 14.785156 -16.582031 15.316406 -16.980469 16.050781 -17.582031 C 16.382812 -16.582031 16.648438 -15.847656 16.847656 -15.117188 C 17.046875 -14.519531 17.113281 -13.917969 17.449219 -13.386719 C 17.648438 -13.050781 18.179688 -12.71875 18.578125 -12.652344 C 18.78125 -12.652344 19.246094 -13.121094 19.378906 -13.453125 C 19.910156 -15.25 19.910156 -17.046875 19.511719 -18.847656 Z M 19.511719 -18.847656 "/></g></g></g><g fill="#000000" fill-opacity="1"><g transform="translate(213.769685, 128.52151)"><g><path d="M 21.777344 -12.320312 C 22.175781 -14.449219 22.507812 -16.515625 22.777344 -18.648438 C 22.910156 -19.777344 22.308594 -20.3125 21.175781 -20.378906 C 20.3125 -20.445312 19.578125 -20.246094 18.914062 -19.644531 C 18.511719 -19.246094 18.046875 -18.847656 17.515625 -18.3125 C 17.449219 -18.78125 17.316406 -19.046875 17.382812 -19.3125 C 17.582031 -21.644531 16.914062 -22.574219 14.71875 -22.707031 C 13.71875 -22.777344 12.652344 -22.640625 11.789062 -22.242188 C 10.523438 -21.644531 9.257812 -20.910156 8.191406 -19.976562 C 4.128906 -16.117188 1.199219 -11.519531 -0.597656 -6.261719 C -0.933594 -5.328125 -1.066406 -4.261719 -1.132812 -3.261719 C -1.199219 -1.332031 -0.398438 -0.53125 1.597656 -0.464844 C 3.0625 -0.398438 4.460938 -0.933594 5.59375 -1.730469 C 7.125 -2.863281 8.65625 -4.0625 10.054688 -5.394531 C 11.988281 -7.324219 13.785156 -9.390625 15.648438 -11.386719 C 16.183594 -11.988281 16.78125 -12.519531 17.582031 -13.320312 C 17.648438 -12.519531 17.714844 -12.1875 17.714844 -11.789062 C 17.449219 -9.589844 17.179688 -7.390625 16.914062 -5.195312 C 16.648438 -2.398438 16.847656 0.332031 17.382812 2.996094 C 17.980469 5.59375 18.914062 6.191406 21.777344 6.058594 C 20.511719 5.261719 20.113281 4.0625 20.113281 2.730469 C 20.179688 0.0664062 20.179688 -2.53125 20.445312 -5.195312 C 20.710938 -7.59375 21.378906 -9.921875 21.777344 -12.320312 Z M 2.464844 -2.664062 C 2.265625 -5.128906 3.328125 -6.859375 4.195312 -8.65625 C 6.992188 -14.050781 10.320312 -18.179688 13.453125 -20.113281 C 14.71875 -18.378906 13.050781 -16.25 14.449219 -14.785156 C 11.652344 -9.921875 6.328125 -4.460938 2.464844 -2.664062 Z M 2.464844 -2.664062 "/></g></g></g><g fill="#000000" fill-opacity="1"><g transform="translate(239.275525, 128.52151)"><g><path d="M 23.042969 -7.390625 C 20.84375 -6.058594 18.980469 -4.128906 16.25 -2.863281 C 16.582031 -4.195312 16.78125 -5.195312 17.113281 -6.058594 C 18.179688 -8.921875 19.3125 -11.789062 20.3125 -14.652344 C 20.710938 -15.648438 21.042969 -16.714844 21.242188 -17.847656 C 21.511719 -19.644531 20.710938 -20.378906 18.847656 -20.445312 C 17.648438 -20.511719 16.582031 -20.246094 15.648438 -19.578125 C 14.050781 -18.378906 12.386719 -17.179688 10.855469 -15.847656 C 9.058594 -14.25 7.390625 -12.453125 5.660156 -10.722656 C 5.328125 -10.457031 4.929688 -10.253906 4.128906 -9.65625 C 4.792969 -11.921875 5.394531 -13.652344 5.792969 -15.382812 C 6.261719 -17.316406 5.660156 -17.980469 3.664062 -17.914062 C 3.261719 -17.914062 2.929688 -17.648438 2.464844 -17.515625 C 1.53125 -14.382812 0.53125 -11.253906 -0.265625 -8.125 C -0.800781 -5.925781 0.265625 -4.792969 2.53125 -5.328125 C 3.261719 -5.460938 3.996094 -5.925781 4.660156 -6.394531 C 5.726562 -7.257812 6.792969 -8.257812 7.792969 -9.191406 C 9.523438 -10.921875 11.253906 -12.652344 12.984375 -14.316406 C 14.117188 -15.382812 15.316406 -16.25 16.515625 -17.25 C 17.046875 -16.050781 16.382812 -15.25 16.117188 -14.449219 C 15.117188 -11.386719 13.984375 -8.324219 12.984375 -5.261719 C 12.652344 -4.195312 12.585938 -3.0625 12.519531 -1.929688 C 12.519531 -0.867188 13.121094 -0.265625 14.183594 -0.132812 C 14.984375 -0.0664062 15.847656 -0.0664062 16.582031 -0.332031 C 17.582031 -0.734375 18.578125 -1.265625 19.445312 -1.996094 C 22.707031 -4.660156 25.972656 -7.390625 29.234375 -10.121094 C 29.433594 -10.320312 29.566406 -10.589844 29.96875 -11.121094 C 26.90625 -10.789062 25.105469 -8.789062 23.042969 -7.390625 Z M 23.042969 -7.390625 "/></g></g></g><g fill="#000000" fill-opacity="1"><g transform="translate(265.980077, 128.52151)"><g><path d="M 31.898438 -6.261719 C 29.035156 -4.527344 26.171875 -2.730469 23.308594 -1 C 22.976562 -0.800781 22.507812 -0.664062 21.710938 -0.398438 C 22.042969 -1.53125 22.242188 -2.265625 22.441406 -2.996094 C 23.839844 -7.058594 24.972656 -11.1875 25.4375 -15.449219 C 25.574219 -16.847656 25.640625 -18.246094 25.507812 -19.644531 C 25.304688 -21.710938 24.039062 -22.640625 21.976562 -22.574219 C 20.84375 -22.574219 19.777344 -22.109375 18.980469 -21.308594 C 18.179688 -20.578125 17.449219 -19.710938 16.714844 -18.847656 C 15.714844 -17.714844 14.851562 -16.515625 13.984375 -15.449219 C 9.125 -15.117188 7.058594 -14.449219 3.128906 -11.585938 C 1.597656 -10.390625 0.199219 -9.058594 -1.199219 -7.792969 C -1.796875 -7.191406 -2.265625 -6.59375 -2.730469 -5.859375 C -4.261719 -3.328125 -3.328125 -1.265625 -0.332031 -0.867188 C 0.800781 -0.734375 2.0625 -0.933594 3.261719 -1.132812 C 5.195312 -1.597656 6.859375 -2.597656 8.257812 -3.929688 C 9.855469 -5.328125 11.453125 -6.792969 12.785156 -8.390625 C 14.917969 -10.988281 16.914062 -13.71875 18.914062 -16.382812 C 19.644531 -17.316406 20.246094 -18.378906 21.378906 -19.113281 C 22.308594 -18.113281 21.976562 -16.980469 21.910156 -15.917969 C 21.578125 -10.390625 19.976562 -5.128906 18.246094 0.0664062 C 17.582031 2.0625 16.449219 3.53125 14.652344 4.660156 C 7.257812 9.390625 0 14.183594 -7.257812 19.046875 C -11.789062 22.109375 -16.117188 25.4375 -19.910156 29.433594 C -21.378906 31.035156 -22.640625 32.699219 -23.773438 34.496094 C -24.375 35.363281 -24.640625 36.5625 -24.773438 37.625 C -24.972656 39.222656 -24.308594 40.089844 -22.84375 40.691406 C -21.242188 41.289062 -19.644531 41.289062 -18.046875 40.957031 C -15.449219 40.488281 -12.984375 39.558594 -10.589844 38.425781 C 0.734375 32.832031 9.191406 24.375 15.25 13.453125 C 16.582031 10.921875 17.914062 8.390625 18.980469 5.792969 C 19.84375 3.464844 21.308594 1.863281 23.375 0.53125 C 26.769531 -1.597656 30.101562 -3.929688 33.429688 -6.261719 C 33.964844 -6.59375 34.496094 -7.058594 34.960938 -7.457031 C 33.832031 -7.257812 32.832031 -6.792969 31.898438 -6.261719 Z M 12.386719 -13.1875 C 10.054688 -9.988281 7.59375 -6.992188 4.394531 -4.59375 C 3.597656 -4.0625 2.730469 -3.597656 1.53125 -2.863281 C 1.132812 -4.726562 1.863281 -5.59375 2.53125 -6.394531 C 5.195312 -9.589844 8.257812 -12.320312 12.320312 -14.117188 C 12.320312 -13.71875 12.519531 -13.386719 12.386719 -13.1875 Z M 14.917969 7.992188 C 9.523438 19.644531 1.863281 29.167969 -9.457031 35.496094 C -11.921875 36.894531 -14.652344 37.824219 -17.25 38.957031 C -17.714844 39.15625 -18.179688 39.292969 -18.714844 39.359375 C -20.578125 39.691406 -21.445312 38.757812 -20.777344 36.894531 C -20.378906 35.761719 -19.84375 34.628906 -19.113281 33.695312 C -18.046875 32.230469 -16.914062 30.765625 -15.582031 29.566406 C -12.320312 26.503906 -9.058594 23.441406 -5.460938 20.777344 C 0.734375 16.183594 7.125 11.855469 13.386719 7.457031 C 13.851562 7.125 14.382812 6.925781 15.316406 6.527344 C 15.117188 7.324219 15.050781 7.660156 14.917969 7.992188 Z M 14.917969 7.992188 "/></g></g></g><g fill="#000000" fill-opacity="1"><g transform="translate(297.679253, 128.52151)"><g><path d="M 23.042969 -10.921875 C 22.574219 -10.523438 22.042969 -10.1875 21.644531 -9.65625 C 18.914062 -6.527344 15.648438 -4.195312 12.054688 -2.53125 C 10.855469 -1.996094 9.523438 -1.730469 8.191406 -1.53125 C 6.792969 -1.398438 5.660156 -2.199219 4.929688 -3.53125 C 4.261719 -4.660156 3.796875 -5.925781 4.128906 -7.660156 C 6.859375 -8.65625 9.058594 -10.1875 10.921875 -12.386719 C 11.789062 -13.320312 12.585938 -14.449219 13.050781 -15.648438 C 13.917969 -17.847656 13.1875 -19.710938 11.253906 -20.644531 C 8.855469 -21.710938 6.59375 -21.308594 4.726562 -19.3125 C 1.730469 -16.183594 -0.132812 -12.320312 -0.398438 -7.726562 C -0.597656 -3.664062 1.332031 -0.867188 4.792969 0.199219 C 7.660156 1 10.457031 0.867188 13.1875 -0.464844 C 16.183594 -1.863281 18.914062 -3.863281 21.308594 -6.460938 C 22.042969 -7.324219 22.707031 -8.324219 23.308594 -9.390625 C 23.574219 -9.722656 23.507812 -10.320312 23.574219 -10.789062 C 23.242188 -10.921875 23.109375 -10.988281 23.042969 -10.921875 Z M 8.855469 -18.246094 C 9.457031 -17.449219 9.191406 -16.582031 8.789062 -15.78125 C 7.859375 -13.917969 6.660156 -12.320312 4.863281 -10.988281 C 5.394531 -14.585938 6.59375 -16.714844 8.855469 -18.246094 Z M 8.855469 -18.246094 "/></g></g></g><g fill="#000000" fill-opacity="1"><g transform="translate(317.990693, 128.52151)"><g><path d="M 19.511719 -18.847656 C 19.046875 -20.578125 17.980469 -21.378906 16.183594 -21.242188 C 14.785156 -21.109375 13.652344 -20.578125 12.71875 -19.511719 C 11.054688 -17.515625 9.390625 -15.449219 7.660156 -13.453125 C 7.257812 -12.917969 6.792969 -12.386719 5.925781 -11.453125 C 6.191406 -15.117188 7.925781 -17.847656 8.125 -21.109375 C 6.792969 -21.578125 5.992188 -21.378906 5.460938 -20.445312 C 5.0625 -19.84375 4.726562 -19.179688 4.460938 -18.578125 C 2.398438 -13.71875 0.332031 -8.855469 -1.730469 -3.996094 C -2.0625 -3.195312 -2.332031 -2.332031 -2.53125 -1.464844 C -2.863281 -0.0664062 -2.199219 0.734375 -0.734375 0.734375 C 0.265625 0.734375 1.265625 0.464844 1.996094 -0.332031 C 2.863281 -1.132812 3.730469 -1.996094 4.460938 -2.996094 C 5.992188 -4.929688 7.324219 -6.925781 8.789062 -8.855469 C 10.589844 -11.253906 12.453125 -13.652344 14.382812 -16.050781 C 14.785156 -16.582031 15.316406 -16.980469 16.050781 -17.582031 C 16.382812 -16.582031 16.648438 -15.847656 16.847656 -15.117188 C 17.046875 -14.519531 17.113281 -13.917969 17.449219 -13.386719 C 17.648438 -13.050781 18.179688 -12.71875 18.578125 -12.652344 C 18.78125 -12.652344 19.246094 -13.121094 19.378906 -13.453125 C 19.910156 -15.25 19.910156 -17.046875 19.511719 -18.847656 Z M 19.511719 -18.847656 "/></g></g></g><g fill="#000000" fill-opacity="1"><g transform="translate(341.298911, 128.52151)"><g><path d="M 27.703125 -77.582031 C 27.105469 -77.316406 26.636719 -76.652344 26.371094 -76.050781 C 25.839844 -74.917969 25.4375 -73.789062 25.105469 -72.589844 C 22.777344 -64.730469 20.378906 -56.9375 18.113281 -49.015625 C 14.71875 -37.160156 11.1875 -25.304688 8.523438 -13.1875 C 7.726562 -9.65625 7.058594 -6.058594 6.992188 -2.398438 C 6.992188 -1.464844 6.992188 -0.53125 7.191406 0.332031 C 7.257812 0.664062 7.792969 1.066406 8.191406 1.199219 C 8.523438 1.332031 9.058594 1.199219 9.324219 0.933594 C 9.589844 0.734375 9.722656 0.265625 9.789062 -0.0664062 C 10.121094 -2.199219 10.390625 -4.328125 10.789062 -6.394531 C 12.453125 -14.25 14.785156 -21.910156 16.980469 -29.566406 C 21.242188 -44.152344 25.4375 -58.738281 29.703125 -73.386719 C 30.035156 -74.652344 30.367188 -75.851562 30.300781 -77.117188 C 29.433594 -77.984375 28.503906 -77.984375 27.703125 -77.582031 Z M 3.53125 8.191406 C 3.0625 8.523438 3.328125 9.324219 3.929688 9.65625 C 5.128906 10.390625 6.460938 10.390625 7.792969 10.253906 C 9.921875 10.054688 10.523438 9.457031 10.722656 7.191406 C 10.789062 6.859375 10.789062 6.460938 10.789062 5.992188 C 10.253906 5.726562 9.789062 5.460938 9.324219 5.460938 C 6.859375 5.128906 5.261719 6.792969 3.53125 8.191406 Z M 3.53125 8.191406 "/></g></g></g></svg>