<svg xmlns="http://www.w3.org/2000/svg" xmlns:xlink="http://www.w3.org/1999/xlink" width="60" zoomAndPan="magnify" viewBox="0 0 45 44.999999" height="60" preserveAspectRatio="xMidYMid meet" version="1.0"><defs><g/></defs><g fill="#ff0000" fill-opacity="1"><g transform="translate(4.269237, 30.646367)"><g><path d="M 2.640625 5.53125 C 2.085938 5.582031 1.523438 5.523438 0.953125 5.359375 C 0.378906 5.191406 -0.132812 4.925781 -0.59375 4.5625 C -1.0625 4.195312 -1.453125 3.726562 -1.765625 3.15625 C -2.078125 2.59375 -2.253906 1.929688 -2.296875 1.171875 C -2.367188 -0.148438 -2.226562 -1.398438 -1.875 -2.578125 C -1.519531 -3.753906 -1.070312 -4.78125 -0.53125 -5.65625 C 0.0078125 -6.53125 0.570312 -7.222656 1.15625 -7.734375 C 1.75 -8.253906 2.265625 -8.539062 2.703125 -8.59375 C 2.972656 -8.613281 3.226562 -8.539062 3.46875 -8.375 C 3.71875 -8.21875 3.914062 -8.003906 4.0625 -7.734375 C 4.207031 -7.472656 4.3125 -7.171875 4.375 -6.828125 C 4.445312 -6.492188 4.441406 -6.164062 4.359375 -5.84375 C 4.148438 -5.957031 3.796875 -5.867188 3.296875 -5.578125 C 2.796875 -5.296875 2.289062 -4.851562 1.78125 -4.25 C 1.28125 -3.644531 0.84375 -2.910156 0.46875 -2.046875 C 0.101562 -1.191406 -0.0546875 -0.25 -0.015625 0.78125 C 0.015625 1.425781 0.101562 1.976562 0.25 2.4375 C 0.40625 2.894531 0.601562 3.257812 0.84375 3.53125 C 1.082031 3.800781 1.332031 3.992188 1.59375 4.109375 C 1.863281 4.222656 2.144531 4.265625 2.4375 4.234375 C 3.144531 4.160156 3.757812 3.832031 4.28125 3.25 C 4.8125 2.664062 5.273438 1.878906 5.671875 0.890625 C 6.066406 -0.0976562 6.410156 -1.269531 6.703125 -2.625 C 7.003906 -3.976562 7.269531 -5.472656 7.5 -7.109375 C 7.5625 -7.597656 7.644531 -8.210938 7.75 -8.953125 C 7.863281 -9.691406 7.988281 -10.492188 8.125 -11.359375 C 8.257812 -12.222656 8.398438 -13.113281 8.546875 -14.03125 C 8.703125 -14.957031 8.847656 -15.84375 8.984375 -16.6875 C 9.117188 -17.539062 9.242188 -18.332031 9.359375 -19.0625 C 9.484375 -19.789062 9.578125 -20.382812 9.640625 -20.84375 C 9.015625 -20.78125 8.382812 -20.679688 7.75 -20.546875 C 7.207031 -20.429688 6.648438 -20.289062 6.078125 -20.125 C 5.515625 -19.957031 5.039062 -19.769531 4.65625 -19.5625 C 4.625 -19.570312 4.59375 -19.617188 4.5625 -19.703125 C 4.53125 -19.785156 4.5 -19.878906 4.46875 -19.984375 C 4.4375 -20.097656 4.40625 -20.222656 4.375 -20.359375 C 4.34375 -20.503906 4.328125 -20.660156 4.328125 -20.828125 C 4.335938 -20.953125 4.34375 -21.097656 4.34375 -21.265625 C 4.351562 -21.429688 4.378906 -21.609375 4.421875 -21.796875 C 4.898438 -21.992188 5.472656 -22.171875 6.140625 -22.328125 C 6.804688 -22.484375 7.425781 -22.609375 8 -22.703125 C 8.664062 -22.828125 9.363281 -22.925781 10.09375 -23 C 10.613281 -23.050781 11.15625 -23.078125 11.71875 -23.078125 C 12.207031 -23.085938 12.753906 -23.082031 13.359375 -23.0625 C 13.972656 -23.050781 14.585938 -23 15.203125 -22.90625 C 15.359375 -22.78125 15.460938 -22.628906 15.515625 -22.453125 C 15.535156 -22.378906 15.550781 -22.296875 15.5625 -22.203125 C 15.582031 -22.054688 15.570312 -21.910156 15.53125 -21.765625 C 15.5 -21.648438 15.445312 -21.519531 15.375 -21.375 C 15.3125 -21.238281 15.210938 -21.128906 15.078125 -21.046875 C 14.859375 -21.078125 14.582031 -21.085938 14.25 -21.078125 C 13.925781 -21.078125 13.609375 -21.082031 13.296875 -21.09375 C 12.953125 -21.09375 12.578125 -21.082031 12.171875 -21.0625 L 10.46875 -7.015625 C 10.425781 -6.671875 10.34375 -6.132812 10.21875 -5.40625 C 10.101562 -4.6875 9.914062 -3.878906 9.65625 -2.984375 C 9.40625 -2.085938 9.082031 -1.160156 8.6875 -0.203125 C 8.300781 0.753906 7.828125 1.640625 7.265625 2.453125 C 6.703125 3.273438 6.039062 3.96875 5.28125 4.53125 C 4.519531 5.09375 3.640625 5.425781 2.640625 5.53125 Z M 2.640625 5.53125 "/></g></g></g><g fill="#ff0000" fill-opacity="1"><g transform="translate(19.207986, 29.155033)"><g><path d="M 1.28125 -2.359375 C 1.757812 -2.484375 2.15625 -2.476562 2.46875 -2.34375 C 2.789062 -2.207031 2.960938 -1.921875 2.984375 -1.484375 C 2.984375 -1.234375 2.898438 -0.984375 2.734375 -0.734375 C 2.566406 -0.484375 2.363281 -0.257812 2.125 -0.0625 C 1.882812 0.132812 1.617188 0.296875 1.328125 0.421875 C 1.046875 0.554688 0.800781 0.632812 0.59375 0.65625 C 0.195312 0.6875 -0.15625 0.628906 -0.46875 0.484375 C -0.789062 0.335938 -0.953125 0.0703125 -0.953125 -0.3125 C -0.953125 -0.570312 -0.890625 -0.8125 -0.765625 -1.03125 C -0.640625 -1.25 -0.472656 -1.441406 -0.265625 -1.609375 C -0.0546875 -1.785156 0.179688 -1.9375 0.453125 -2.0625 C 0.722656 -2.195312 1 -2.296875 1.28125 -2.359375 Z M 1.28125 -2.359375 "/></g></g></g><g fill="#ff0000" fill-opacity="1"><g transform="translate(25.585347, 28.518381)"><g><path d="M 3.8125 -10.390625 C 2.832031 -10.285156 2.023438 -10.3125 1.390625 -10.46875 C 0.765625 -10.625 0.320312 -10.847656 0.0625 -11.140625 C -0.0390625 -11.273438 -0.144531 -11.472656 -0.25 -11.734375 C -0.351562 -11.992188 -0.351562 -12.296875 -0.25 -12.640625 C 0.0390625 -12.460938 0.347656 -12.332031 0.671875 -12.25 C 1.003906 -12.175781 1.304688 -12.132812 1.578125 -12.125 C 1.921875 -12.101562 2.25 -12.109375 2.5625 -12.140625 C 3.144531 -12.191406 3.707031 -12.289062 4.25 -12.4375 C 4.789062 -12.59375 5.320312 -12.785156 5.84375 -13.015625 C 5.96875 -14.210938 6.09375 -15.285156 6.21875 -16.234375 C 6.34375 -17.191406 6.523438 -17.976562 6.765625 -18.59375 C 7.015625 -19.257812 7.28125 -19.867188 7.5625 -20.421875 C 7.851562 -20.972656 8.1875 -21.445312 8.5625 -21.84375 C 8.945312 -22.238281 9.378906 -22.5625 9.859375 -22.8125 C 10.347656 -23.0625 10.925781 -23.21875 11.59375 -23.28125 C 12.070312 -23.332031 12.460938 -23.269531 12.765625 -23.09375 C 13.066406 -22.925781 13.300781 -22.703125 13.46875 -22.421875 C 13.644531 -22.148438 13.765625 -21.84375 13.828125 -21.5 C 13.898438 -21.164062 13.953125 -20.851562 13.984375 -20.5625 C 14.046875 -19.914062 13.957031 -19.195312 13.71875 -18.40625 C 13.476562 -17.625 13.113281 -16.835938 12.625 -16.046875 C 12.132812 -15.265625 11.53125 -14.503906 10.8125 -13.765625 C 10.101562 -13.023438 9.28125 -12.390625 8.34375 -11.859375 C 8.132812 -10.546875 7.929688 -9.242188 7.734375 -7.953125 C 7.546875 -6.671875 7.335938 -5.609375 7.109375 -4.765625 C 6.921875 -3.972656 6.660156 -3.09375 6.328125 -2.125 C 5.992188 -1.15625 5.570312 -0.210938 5.0625 0.703125 C 5.457031 0.898438 5.859375 1.101562 6.265625 1.3125 C 6.671875 1.53125 7.078125 1.71875 7.484375 1.875 C 7.898438 2.039062 8.3125 2.171875 8.71875 2.265625 C 9.125 2.367188 9.550781 2.398438 10 2.359375 C 10.46875 2.296875 10.914062 2.175781 11.34375 2 C 11.71875 1.875 12.109375 1.675781 12.515625 1.40625 C 12.929688 1.144531 13.300781 0.789062 13.625 0.34375 C 13.78125 0.5625 13.859375 0.90625 13.859375 1.375 C 13.859375 1.851562 13.753906 2.335938 13.546875 2.828125 C 13.335938 3.316406 13.015625 3.753906 12.578125 4.140625 C 12.148438 4.535156 11.59375 4.769531 10.90625 4.84375 C 10.164062 4.914062 9.460938 4.882812 8.796875 4.75 C 8.140625 4.613281 7.515625 4.425781 6.921875 4.1875 C 6.328125 3.957031 5.765625 3.695312 5.234375 3.40625 C 4.710938 3.113281 4.222656 2.84375 3.765625 2.59375 C 3.234375 3.207031 2.632812 3.722656 1.96875 4.140625 C 1.3125 4.566406 0.550781 4.820312 -0.3125 4.90625 C -0.976562 4.976562 -1.535156 4.84375 -1.984375 4.5 C -2.429688 4.164062 -2.671875 3.675781 -2.703125 3.03125 C -2.703125 2.800781 -2.660156 2.519531 -2.578125 2.1875 C -2.492188 1.863281 -2.300781 1.535156 -2 1.203125 C -1.707031 0.878906 -1.289062 0.585938 -0.75 0.328125 C -0.207031 0.0664062 0.507812 -0.109375 1.40625 -0.203125 C 1.726562 -0.234375 2.039062 -0.226562 2.34375 -0.1875 C 2.65625 -0.15625 2.960938 -0.101562 3.265625 -0.03125 C 3.441406 -0.445312 3.609375 -0.914062 3.765625 -1.4375 C 3.929688 -1.957031 4.109375 -2.550781 4.296875 -3.21875 C 4.617188 -4.488281 4.882812 -5.753906 5.09375 -7.015625 C 5.300781 -8.285156 5.460938 -9.515625 5.578125 -10.703125 C 5.304688 -10.617188 5.019531 -10.550781 4.71875 -10.5 C 4.425781 -10.457031 4.125 -10.421875 3.8125 -10.390625 Z M 0.296875 3.265625 C 0.535156 3.140625 0.816406 3.007812 1.140625 2.875 C 1.460938 2.75 1.8125 2.441406 2.1875 1.953125 C 1.894531 1.878906 1.671875 1.851562 1.515625 1.875 C 0.816406 1.9375 0.316406 2.085938 0.015625 2.328125 C -0.285156 2.566406 -0.425781 2.78125 -0.40625 2.96875 C -0.394531 3.101562 -0.328125 3.203125 -0.203125 3.265625 C -0.078125 3.328125 0.0859375 3.328125 0.296875 3.265625 Z M 9.265625 -18.109375 C 9.210938 -17.804688 9.132812 -17.363281 9.03125 -16.78125 C 8.9375 -16.195312 8.835938 -15.535156 8.734375 -14.796875 C 9.703125 -15.578125 10.460938 -16.429688 11.015625 -17.359375 C 11.566406 -18.296875 11.796875 -19.203125 11.703125 -20.078125 C 11.648438 -20.609375 11.46875 -20.859375 11.15625 -20.828125 C 10.882812 -20.796875 10.550781 -20.546875 10.15625 -20.078125 C 9.769531 -19.617188 9.472656 -18.960938 9.265625 -18.109375 Z M 9.265625 -18.109375 "/></g></g></g><g fill="#00ffff" fill-opacity="1"><g transform="translate(6.032624, 30.998697)"><g><path d="M 2.640625 5.53125 C 2.085938 5.582031 1.523438 5.523438 0.953125 5.359375 C 0.378906 5.191406 -0.132812 4.925781 -0.59375 4.5625 C -1.0625 4.195312 -1.453125 3.726562 -1.765625 3.15625 C -2.078125 2.59375 -2.253906 1.929688 -2.296875 1.171875 C -2.367188 -0.148438 -2.226562 -1.398438 -1.875 -2.578125 C -1.519531 -3.753906 -1.070312 -4.78125 -0.53125 -5.65625 C 0.0078125 -6.53125 0.570312 -7.222656 1.15625 -7.734375 C 1.75 -8.253906 2.265625 -8.539062 2.703125 -8.59375 C 2.972656 -8.613281 3.226562 -8.539062 3.46875 -8.375 C 3.71875 -8.21875 3.914062 -8.003906 4.0625 -7.734375 C 4.207031 -7.472656 4.3125 -7.171875 4.375 -6.828125 C 4.445312 -6.492188 4.441406 -6.164062 4.359375 -5.84375 C 4.148438 -5.957031 3.796875 -5.867188 3.296875 -5.578125 C 2.796875 -5.296875 2.289062 -4.851562 1.78125 -4.25 C 1.28125 -3.644531 0.84375 -2.910156 0.46875 -2.046875 C 0.101562 -1.191406 -0.0546875 -0.25 -0.015625 0.78125 C 0.015625 1.425781 0.101562 1.976562 0.25 2.4375 C 0.40625 2.894531 0.601562 3.257812 0.84375 3.53125 C 1.082031 3.800781 1.332031 3.992188 1.59375 4.109375 C 1.863281 4.222656 2.144531 4.265625 2.4375 4.234375 C 3.144531 4.160156 3.757812 3.832031 4.28125 3.25 C 4.8125 2.664062 5.273438 1.878906 5.671875 0.890625 C 6.066406 -0.0976562 6.410156 -1.269531 6.703125 -2.625 C 7.003906 -3.976562 7.269531 -5.472656 7.5 -7.109375 C 7.5625 -7.597656 7.644531 -8.210938 7.75 -8.953125 C 7.863281 -9.691406 7.988281 -10.492188 8.125 -11.359375 C 8.257812 -12.222656 8.398438 -13.113281 8.546875 -14.03125 C 8.703125 -14.957031 8.847656 -15.84375 8.984375 -16.6875 C 9.117188 -17.539062 9.242188 -18.332031 9.359375 -19.0625 C 9.484375 -19.789062 9.578125 -20.382812 9.640625 -20.84375 C 9.015625 -20.78125 8.382812 -20.679688 7.75 -20.546875 C 7.207031 -20.429688 6.648438 -20.289062 6.078125 -20.125 C 5.515625 -19.957031 5.039062 -19.769531 4.65625 -19.5625 C 4.625 -19.570312 4.59375 -19.617188 4.5625 -19.703125 C 4.53125 -19.785156 4.5 -19.878906 4.46875 -19.984375 C 4.4375 -20.097656 4.40625 -20.222656 4.375 -20.359375 C 4.34375 -20.503906 4.328125 -20.660156 4.328125 -20.828125 C 4.335938 -20.953125 4.34375 -21.097656 4.34375 -21.265625 C 4.351562 -21.429688 4.378906 -21.609375 4.421875 -21.796875 C 4.898438 -21.992188 5.472656 -22.171875 6.140625 -22.328125 C 6.804688 -22.484375 7.425781 -22.609375 8 -22.703125 C 8.664062 -22.828125 9.363281 -22.925781 10.09375 -23 C 10.613281 -23.050781 11.15625 -23.078125 11.71875 -23.078125 C 12.207031 -23.085938 12.753906 -23.082031 13.359375 -23.0625 C 13.972656 -23.050781 14.585938 -23 15.203125 -22.90625 C 15.359375 -22.78125 15.460938 -22.628906 15.515625 -22.453125 C 15.535156 -22.378906 15.550781 -22.296875 15.5625 -22.203125 C 15.582031 -22.054688 15.570312 -21.910156 15.53125 -21.765625 C 15.5 -21.648438 15.445312 -21.519531 15.375 -21.375 C 15.3125 -21.238281 15.210938 -21.128906 15.078125 -21.046875 C 14.859375 -21.078125 14.582031 -21.085938 14.25 -21.078125 C 13.925781 -21.078125 13.609375 -21.082031 13.296875 -21.09375 C 12.953125 -21.09375 12.578125 -21.082031 12.171875 -21.0625 L 10.46875 -7.015625 C 10.425781 -6.671875 10.34375 -6.132812 10.21875 -5.40625 C 10.101562 -4.6875 9.914062 -3.878906 9.65625 -2.984375 C 9.40625 -2.085938 9.082031 -1.160156 8.6875 -0.203125 C 8.300781 0.753906 7.828125 1.640625 7.265625 2.453125 C 6.703125 3.273438 6.039062 3.96875 5.28125 4.53125 C 4.519531 5.09375 3.640625 5.425781 2.640625 5.53125 Z M 2.640625 5.53125 "/></g></g></g><g fill="#00ffff" fill-opacity="1"><g transform="translate(20.971373, 29.507362)"><g><path d="M 1.28125 -2.359375 C 1.757812 -2.484375 2.15625 -2.476562 2.46875 -2.34375 C 2.789062 -2.207031 2.960938 -1.921875 2.984375 -1.484375 C 2.984375 -1.234375 2.898438 -0.984375 2.734375 -0.734375 C 2.566406 -0.484375 2.363281 -0.257812 2.125 -0.0625 C 1.882812 0.132812 1.617188 0.296875 1.328125 0.421875 C 1.046875 0.554688 0.800781 0.632812 0.59375 0.65625 C 0.195312 0.6875 -0.15625 0.628906 -0.46875 0.484375 C -0.789062 0.335938 -0.953125 0.0703125 -0.953125 -0.3125 C -0.953125 -0.570312 -0.890625 -0.8125 -0.765625 -1.03125 C -0.640625 -1.25 -0.472656 -1.441406 -0.265625 -1.609375 C -0.0546875 -1.785156 0.179688 -1.9375 0.453125 -2.0625 C 0.722656 -2.195312 1 -2.296875 1.28125 -2.359375 Z M 1.28125 -2.359375 "/></g></g></g><g fill="#00ffff" fill-opacity="1"><g transform="translate(27.348733, 28.870711)"><g><path d="M 3.8125 -10.390625 C 2.832031 -10.285156 2.023438 -10.3125 1.390625 -10.46875 C 0.765625 -10.625 0.320312 -10.847656 0.0625 -11.140625 C -0.0390625 -11.273438 -0.144531 -11.472656 -0.25 -11.734375 C -0.351562 -11.992188 -0.351562 -12.296875 -0.25 -12.640625 C 0.0390625 -12.460938 0.347656 -12.332031 0.671875 -12.25 C 1.003906 -12.175781 1.304688 -12.132812 1.578125 -12.125 C 1.921875 -12.101562 2.25 -12.109375 2.5625 -12.140625 C 3.144531 -12.191406 3.707031 -12.289062 4.25 -12.4375 C 4.789062 -12.59375 5.320312 -12.785156 5.84375 -13.015625 C 5.96875 -14.210938 6.09375 -15.285156 6.21875 -16.234375 C 6.34375 -17.191406 6.523438 -17.976562 6.765625 -18.59375 C 7.015625 -19.257812 7.28125 -19.867188 7.5625 -20.421875 C 7.851562 -20.972656 8.1875 -21.445312 8.5625 -21.84375 C 8.945312 -22.238281 9.378906 -22.5625 9.859375 -22.8125 C 10.347656 -23.0625 10.925781 -23.21875 11.59375 -23.28125 C 12.070312 -23.332031 12.460938 -23.269531 12.765625 -23.09375 C 13.066406 -22.925781 13.300781 -22.703125 13.46875 -22.421875 C 13.644531 -22.148438 13.765625 -21.84375 13.828125 -21.5 C 13.898438 -21.164062 13.953125 -20.851562 13.984375 -20.5625 C 14.046875 -19.914062 13.957031 -19.195312 13.71875 -18.40625 C 13.476562 -17.625 13.113281 -16.835938 12.625 -16.046875 C 12.132812 -15.265625 11.53125 -14.503906 10.8125 -13.765625 C 10.101562 -13.023438 9.28125 -12.390625 8.34375 -11.859375 C 8.132812 -10.546875 7.929688 -9.242188 7.734375 -7.953125 C 7.546875 -6.671875 7.335938 -5.609375 7.109375 -4.765625 C 6.921875 -3.972656 6.660156 -3.09375 6.328125 -2.125 C 5.992188 -1.15625 5.570312 -0.210938 5.0625 0.703125 C 5.457031 0.898438 5.859375 1.101562 6.265625 1.3125 C 6.671875 1.53125 7.078125 1.71875 7.484375 1.875 C 7.898438 2.039062 8.3125 2.171875 8.71875 2.265625 C 9.125 2.367188 9.550781 2.398438 10 2.359375 C 10.46875 2.296875 10.914062 2.175781 11.34375 2 C 11.71875 1.875 12.109375 1.675781 12.515625 1.40625 C 12.929688 1.144531 13.300781 0.789062 13.625 0.34375 C 13.78125 0.5625 13.859375 0.90625 13.859375 1.375 C 13.859375 1.851562 13.753906 2.335938 13.546875 2.828125 C 13.335938 3.316406 13.015625 3.753906 12.578125 4.140625 C 12.148438 4.535156 11.59375 4.769531 10.90625 4.84375 C 10.164062 4.914062 9.460938 4.882812 8.796875 4.75 C 8.140625 4.613281 7.515625 4.425781 6.921875 4.1875 C 6.328125 3.957031 5.765625 3.695312 5.234375 3.40625 C 4.710938 3.113281 4.222656 2.84375 3.765625 2.59375 C 3.234375 3.207031 2.632812 3.722656 1.96875 4.140625 C 1.3125 4.566406 0.550781 4.820312 -0.3125 4.90625 C -0.976562 4.976562 -1.535156 4.84375 -1.984375 4.5 C -2.429688 4.164062 -2.671875 3.675781 -2.703125 3.03125 C -2.703125 2.800781 -2.660156 2.519531 -2.578125 2.1875 C -2.492188 1.863281 -2.300781 1.535156 -2 1.203125 C -1.707031 0.878906 -1.289062 0.585938 -0.75 0.328125 C -0.207031 0.0664062 0.507812 -0.109375 1.40625 -0.203125 C 1.726562 -0.234375 2.039062 -0.226562 2.34375 -0.1875 C 2.65625 -0.15625 2.960938 -0.101562 3.265625 -0.03125 C 3.441406 -0.445312 3.609375 -0.914062 3.765625 -1.4375 C 3.929688 -1.957031 4.109375 -2.550781 4.296875 -3.21875 C 4.617188 -4.488281 4.882812 -5.753906 5.09375 -7.015625 C 5.300781 -8.285156 5.460938 -9.515625 5.578125 -10.703125 C 5.304688 -10.617188 5.019531 -10.550781 4.71875 -10.5 C 4.425781 -10.457031 4.125 -10.421875 3.8125 -10.390625 Z M 0.296875 3.265625 C 0.535156 3.140625 0.816406 3.007812 1.140625 2.875 C 1.460938 2.75 1.8125 2.441406 2.1875 1.953125 C 1.894531 1.878906 1.671875 1.851562 1.515625 1.875 C 0.816406 1.9375 0.316406 2.085938 0.015625 2.328125 C -0.285156 2.566406 -0.425781 2.78125 -0.40625 2.96875 C -0.394531 3.101562 -0.328125 3.203125 -0.203125 3.265625 C -0.078125 3.328125 0.0859375 3.328125 0.296875 3.265625 Z M 9.265625 -18.109375 C 9.210938 -17.804688 9.132812 -17.363281 9.03125 -16.78125 C 8.9375 -16.195312 8.835938 -15.535156 8.734375 -14.796875 C 9.703125 -15.578125 10.460938 -16.429688 11.015625 -17.359375 C 11.566406 -18.296875 11.796875 -19.203125 11.703125 -20.078125 C 11.648438 -20.609375 11.46875 -20.859375 11.15625 -20.828125 C 10.882812 -20.796875 10.550781 -20.546875 10.15625 -20.078125 C 9.769531 -19.617188 9.472656 -18.960938 9.265625 -18.109375 Z M 9.265625 -18.109375 "/></g></g></g><g fill="#ffffff" fill-opacity="1"><g transform="translate(5.150931, 30.822532)"><g><path d="M 2.640625 5.53125 C 2.085938 5.582031 1.523438 5.523438 0.953125 5.359375 C 0.378906 5.191406 -0.132812 4.925781 -0.59375 4.5625 C -1.0625 4.195312 -1.453125 3.726562 -1.765625 3.15625 C -2.078125 2.59375 -2.253906 1.929688 -2.296875 1.171875 C -2.367188 -0.148438 -2.226562 -1.398438 -1.875 -2.578125 C -1.519531 -3.753906 -1.070312 -4.78125 -0.53125 -5.65625 C 0.0078125 -6.53125 0.570312 -7.222656 1.15625 -7.734375 C 1.75 -8.253906 2.265625 -8.539062 2.703125 -8.59375 C 2.972656 -8.613281 3.226562 -8.539062 3.46875 -8.375 C 3.71875 -8.21875 3.914062 -8.003906 4.0625 -7.734375 C 4.207031 -7.472656 4.3125 -7.171875 4.375 -6.828125 C 4.445312 -6.492188 4.441406 -6.164062 4.359375 -5.84375 C 4.148438 -5.957031 3.796875 -5.867188 3.296875 -5.578125 C 2.796875 -5.296875 2.289062 -4.851562 1.78125 -4.25 C 1.28125 -3.644531 0.84375 -2.910156 0.46875 -2.046875 C 0.101562 -1.191406 -0.0546875 -0.25 -0.015625 0.78125 C 0.015625 1.425781 0.101562 1.976562 0.25 2.4375 C 0.40625 2.894531 0.601562 3.257812 0.84375 3.53125 C 1.082031 3.800781 1.332031 3.992188 1.59375 4.109375 C 1.863281 4.222656 2.144531 4.265625 2.4375 4.234375 C 3.144531 4.160156 3.757812 3.832031 4.28125 3.25 C 4.8125 2.664062 5.273438 1.878906 5.671875 0.890625 C 6.066406 -0.0976562 6.410156 -1.269531 6.703125 -2.625 C 7.003906 -3.976562 7.269531 -5.472656 7.5 -7.109375 C 7.5625 -7.597656 7.644531 -8.210938 7.75 -8.953125 C 7.863281 -9.691406 7.988281 -10.492188 8.125 -11.359375 C 8.257812 -12.222656 8.398438 -13.113281 8.546875 -14.03125 C 8.703125 -14.957031 8.847656 -15.84375 8.984375 -16.6875 C 9.117188 -17.539062 9.242188 -18.332031 9.359375 -19.0625 C 9.484375 -19.789062 9.578125 -20.382812 9.640625 -20.84375 C 9.015625 -20.78125 8.382812 -20.679688 7.75 -20.546875 C 7.207031 -20.429688 6.648438 -20.289062 6.078125 -20.125 C 5.515625 -19.957031 5.039062 -19.769531 4.65625 -19.5625 C 4.625 -19.570312 4.59375 -19.617188 4.5625 -19.703125 C 4.53125 -19.785156 4.5 -19.878906 4.46875 -19.984375 C 4.4375 -20.097656 4.40625 -20.222656 4.375 -20.359375 C 4.34375 -20.503906 4.328125 -20.660156 4.328125 -20.828125 C 4.335938 -20.953125 4.34375 -21.097656 4.34375 -21.265625 C 4.351562 -21.429688 4.378906 -21.609375 4.421875 -21.796875 C 4.898438 -21.992188 5.472656 -22.171875 6.140625 -22.328125 C 6.804688 -22.484375 7.425781 -22.609375 8 -22.703125 C 8.664062 -22.828125 9.363281 -22.925781 10.09375 -23 C 10.613281 -23.050781 11.15625 -23.078125 11.71875 -23.078125 C 12.207031 -23.085938 12.753906 -23.082031 13.359375 -23.0625 C 13.972656 -23.050781 14.585938 -23 15.203125 -22.90625 C 15.359375 -22.78125 15.460938 -22.628906 15.515625 -22.453125 C 15.535156 -22.378906 15.550781 -22.296875 15.5625 -22.203125 C 15.582031 -22.054688 15.570312 -21.910156 15.53125 -21.765625 C 15.5 -21.648438 15.445312 -21.519531 15.375 -21.375 C 15.3125 -21.238281 15.210938 -21.128906 15.078125 -21.046875 C 14.859375 -21.078125 14.582031 -21.085938 14.25 -21.078125 C 13.925781 -21.078125 13.609375 -21.082031 13.296875 -21.09375 C 12.953125 -21.09375 12.578125 -21.082031 12.171875 -21.0625 L 10.46875 -7.015625 C 10.425781 -6.671875 10.34375 -6.132812 10.21875 -5.40625 C 10.101562 -4.6875 9.914062 -3.878906 9.65625 -2.984375 C 9.40625 -2.085938 9.082031 -1.160156 8.6875 -0.203125 C 8.300781 0.753906 7.828125 1.640625 7.265625 2.453125 C 6.703125 3.273438 6.039062 3.96875 5.28125 4.53125 C 4.519531 5.09375 3.640625 5.425781 2.640625 5.53125 Z M 2.640625 5.53125 "/></g></g></g><g fill="#ffffff" fill-opacity="1"><g transform="translate(20.08968, 29.331198)"><g><path d="M 1.28125 -2.359375 C 1.757812 -2.484375 2.15625 -2.476562 2.46875 -2.34375 C 2.789062 -2.207031 2.960938 -1.921875 2.984375 -1.484375 C 2.984375 -1.234375 2.898438 -0.984375 2.734375 -0.734375 C 2.566406 -0.484375 2.363281 -0.257812 2.125 -0.0625 C 1.882812 0.132812 1.617188 0.296875 1.328125 0.421875 C 1.046875 0.554688 0.800781 0.632812 0.59375 0.65625 C 0.195312 0.6875 -0.15625 0.628906 -0.46875 0.484375 C -0.789062 0.335938 -0.953125 0.0703125 -0.953125 -0.3125 C -0.953125 -0.570312 -0.890625 -0.8125 -0.765625 -1.03125 C -0.640625 -1.25 -0.472656 -1.441406 -0.265625 -1.609375 C -0.0546875 -1.785156 0.179688 -1.9375 0.453125 -2.0625 C 0.722656 -2.195312 1 -2.296875 1.28125 -2.359375 Z M 1.28125 -2.359375 "/></g></g></g><g fill="#ffffff" fill-opacity="1"><g transform="translate(26.46704, 28.694546)"><g><path d="M 3.8125 -10.390625 C 2.832031 -10.285156 2.023438 -10.3125 1.390625 -10.46875 C 0.765625 -10.625 0.320312 -10.847656 0.0625 -11.140625 C -0.0390625 -11.273438 -0.144531 -11.472656 -0.25 -11.734375 C -0.351562 -11.992188 -0.351562 -12.296875 -0.25 -12.640625 C 0.0390625 -12.460938 0.347656 -12.332031 0.671875 -12.25 C 1.003906 -12.175781 1.304688 -12.132812 1.578125 -12.125 C 1.921875 -12.101562 2.25 -12.109375 2.5625 -12.140625 C 3.144531 -12.191406 3.707031 -12.289062 4.25 -12.4375 C 4.789062 -12.59375 5.320312 -12.785156 5.84375 -13.015625 C 5.96875 -14.210938 6.09375 -15.285156 6.21875 -16.234375 C 6.34375 -17.191406 6.523438 -17.976562 6.765625 -18.59375 C 7.015625 -19.257812 7.28125 -19.867188 7.5625 -20.421875 C 7.851562 -20.972656 8.1875 -21.445312 8.5625 -21.84375 C 8.945312 -22.238281 9.378906 -22.5625 9.859375 -22.8125 C 10.347656 -23.0625 10.925781 -23.21875 11.59375 -23.28125 C 12.070312 -23.332031 12.460938 -23.269531 12.765625 -23.09375 C 13.066406 -22.925781 13.300781 -22.703125 13.46875 -22.421875 C 13.644531 -22.148438 13.765625 -21.84375 13.828125 -21.5 C 13.898438 -21.164062 13.953125 -20.851562 13.984375 -20.5625 C 14.046875 -19.914062 13.957031 -19.195312 13.71875 -18.40625 C 13.476562 -17.625 13.113281 -16.835938 12.625 -16.046875 C 12.132812 -15.265625 11.53125 -14.503906 10.8125 -13.765625 C 10.101562 -13.023438 9.28125 -12.390625 8.34375 -11.859375 C 8.132812 -10.546875 7.929688 -9.242188 7.734375 -7.953125 C 7.546875 -6.671875 7.335938 -5.609375 7.109375 -4.765625 C 6.921875 -3.972656 6.660156 -3.09375 6.328125 -2.125 C 5.992188 -1.15625 5.570312 -0.210938 5.0625 0.703125 C 5.457031 0.898438 5.859375 1.101562 6.265625 1.3125 C 6.671875 1.53125 7.078125 1.71875 7.484375 1.875 C 7.898438 2.039062 8.3125 2.171875 8.71875 2.265625 C 9.125 2.367188 9.550781 2.398438 10 2.359375 C 10.46875 2.296875 10.914062 2.175781 11.34375 2 C 11.71875 1.875 12.109375 1.675781 12.515625 1.40625 C 12.929688 1.144531 13.300781 0.789062 13.625 0.34375 C 13.78125 0.5625 13.859375 0.90625 13.859375 1.375 C 13.859375 1.851562 13.753906 2.335938 13.546875 2.828125 C 13.335938 3.316406 13.015625 3.753906 12.578125 4.140625 C 12.148438 4.535156 11.59375 4.769531 10.90625 4.84375 C 10.164062 4.914062 9.460938 4.882812 8.796875 4.75 C 8.140625 4.613281 7.515625 4.425781 6.921875 4.1875 C 6.328125 3.957031 5.765625 3.695312 5.234375 3.40625 C 4.710938 3.113281 4.222656 2.84375 3.765625 2.59375 C 3.234375 3.207031 2.632812 3.722656 1.96875 4.140625 C 1.3125 4.566406 0.550781 4.820312 -0.3125 4.90625 C -0.976562 4.976562 -1.535156 4.84375 -1.984375 4.5 C -2.429688 4.164062 -2.671875 3.675781 -2.703125 3.03125 C -2.703125 2.800781 -2.660156 2.519531 -2.578125 2.1875 C -2.492188 1.863281 -2.300781 1.535156 -2 1.203125 C -1.707031 0.878906 -1.289062 0.585938 -0.75 0.328125 C -0.207031 0.0664062 0.507812 -0.109375 1.40625 -0.203125 C 1.726562 -0.234375 2.039062 -0.226562 2.34375 -0.1875 C 2.65625 -0.15625 2.960938 -0.101562 3.265625 -0.03125 C 3.441406 -0.445312 3.609375 -0.914062 3.765625 -1.4375 C 3.929688 -1.957031 4.109375 -2.550781 4.296875 -3.21875 C 4.617188 -4.488281 4.882812 -5.753906 5.09375 -7.015625 C 5.300781 -8.285156 5.460938 -9.515625 5.578125 -10.703125 C 5.304688 -10.617188 5.019531 -10.550781 4.71875 -10.5 C 4.425781 -10.457031 4.125 -10.421875 3.8125 -10.390625 Z M 0.296875 3.265625 C 0.535156 3.140625 0.816406 3.007812 1.140625 2.875 C 1.460938 2.75 1.8125 2.441406 2.1875 1.953125 C 1.894531 1.878906 1.671875 1.851562 1.515625 1.875 C 0.816406 1.9375 0.316406 2.085938 0.015625 2.328125 C -0.285156 2.566406 -0.425781 2.78125 -0.40625 2.96875 C -0.394531 3.101562 -0.328125 3.203125 -0.203125 3.265625 C -0.078125 3.328125 0.0859375 3.328125 0.296875 3.265625 Z M 9.265625 -18.109375 C 9.210938 -17.804688 9.132812 -17.363281 9.03125 -16.78125 C 8.9375 -16.195312 8.835938 -15.535156 8.734375 -14.796875 C 9.703125 -15.578125 10.460938 -16.429688 11.015625 -17.359375 C 11.566406 -18.296875 11.796875 -19.203125 11.703125 -20.078125 C 11.648438 -20.609375 11.46875 -20.859375 11.15625 -20.828125 C 10.882812 -20.796875 10.550781 -20.546875 10.15625 -20.078125 C 9.769531 -19.617188 9.472656 -18.960938 9.265625 -18.109375 Z M 9.265625 -18.109375 "/></g></g></g></svg>